<svg height="90" width="174" xmlns="http://www.w3.org/2000/svg"><path d="m120.17 52.35c1.35 0 2.43.4 3.38 1.16l-.9 1.21a4.23 4.23 0 0 0 -2.53-.94c-.95 0-1.51.48-1.51 1.1 0 .73.43 1.03 2.21 1.46 1.97.46 3 1.16 3.02 2.75 0 1.73-1.37 2.76-3.32 2.76a5.7 5.7 0 0 1 -3.88-1.49l.97-1.16c.89.76 1.78 1.19 2.94 1.19 1 0 1.65-.46 1.65-1.16 0-.68-.38-1.03-2.1-1.43-2-.46-3.11-1.05-3.11-2.75 0-1.62 1.32-2.7 3.18-2.7zm-52.8.13c2.14 0 3.46 1.1 3.46 2.92 0 1.5-.92 2.43-2.18 2.8l2.5 3.48h-1.94l-2.3-3.2h-2.04v3.2h-1.65v-9.2zm13.48-.08 4.1 9.28h-1.73l-.94-2.2h-4.43l-.94 2.2h-1.68l4.1-9.28zm10.36.05 5 6.37v-6.37h1.59v9.23h-1.35l-5.16-6.55v6.55h-1.6v-9.23zm15.95 0c2.94 0 4.97 2 4.94 4.6 0 2.58-2.02 4.6-4.94 4.6h-3.48v-9.2zm-52.9 0c1.86 0 3.05.9 3.05 2.35 0 1.14-.62 1.73-1.32 2.08 1.08.38 1.83 1 1.86 2.24 0 1.65-1.38 2.54-3.46 2.54h-4.31v-9.2zm0 5.27h-2.6v2.53h2.73c1.11 0 1.79-.45 1.79-1.3 0-.77-.62-1.23-1.92-1.23zm52.9-3.78h-1.83v6.26h1.83c1.97 0 3.24-1.3 3.24-3.1 0-1.84-1.3-3.16-3.24-3.16zm-27.1.38-1.59 3.7h3.21zm-35.33 1.75v1.38h-18.73v-1.38zm102.9 0v1.38h-18.74v-1.38h18.73zm-80.39-2.13h-2.37v3.1h2.37c1.16 0 1.92-.62 1.92-1.56 0-1-.7-1.54-1.92-1.54zm-13.22-.03h-2.35v2.46h2.24c1.05 0 1.75-.4 1.75-1.27 0-.76-.6-1.19-1.64-1.19zm15.87-25.88c3.43 0 5.64 1.4 7.12 3.45l-3.5 2.67c-.98-1.18-2.06-1.94-3.68-1.94-2.34 0-4 1.97-4 4.4v.05c0 2.49 1.66 4.43 4 4.43 1.73 0 2.78-.8 3.78-2.02l3.51 2.45a8.52 8.52 0 0 1 -7.45 3.75 8.46 8.46 0 0 1 -8.64-8.55v-.06c0-4.83 3.78-8.63 8.86-8.63zm70.44-.03c2.87 0 5.08.76 6.91 2.21l-2.32 3.27a8.4 8.4 0 0 0 -4.7-1.65c-1.13 0-1.67.49-1.67 1.08v.06c0 .75.6 1.1 2.92 1.62 3.86.83 6.26 2.05 6.26 5.18v-.02.22c-.12 3.26-2.82 5.2-6.8 5.2-3 0-5.83-.92-7.88-2.76l2.59-3.05c1.67 1.33 3.5 2 5.45 2 1.24 0 1.92-.43 1.92-1.13v-.06c0-.7-.57-1.08-2.84-1.59-3.59-.78-6.34-1.78-6.34-5.2v-.06c0-3.08 2.48-5.32 6.5-5.32zm-107.85.32c5.99 0 9.47 3.4 9.47 8.2v.06c0 4.78-3.53 8.34-9.58 8.37h-6.37v-16.63zm91.47 0c2.57 0 4.35.68 5.48 1.81a5.12 5.12 0 0 1 1.48 3.86v.06a5.28 5.28 0 0 1 -3.45 5.1l4 5.8h-5.38l-3.37-5.02h-2.05v5.02h-4.64v-16.63zm-65.43 0v3.92h-8.9v2.5h7.18v3.65h-7.18v2.62h9.01v3.91h-13.63v-16.6zm53.55 0v3.92h-8.9v2.5h7.2v3.65h-7.2v2.62h9.04v3.91h-13.63v-16.6h13.5zm-27.42 0v6.72l5.78-6.72h5.5l-7.42 8.29 7.5 8.31h-5.58l-5.78-6.72v6.72h-4.67v-16.6zm-52.12 4.08h-1.89v8.47h1.9c2.8 0 4.63-1.53 4.63-4.2v-.06c0-2.67-1.86-4.21-4.64-4.21zm91.2-.1h-3.05v3.99h3.08c1.57 0 2.49-.76 2.49-1.97v-.06c0-1.3-.95-1.97-2.52-1.97z" fill="#555"/></svg>