<svg height="90" width="174" xmlns="http://www.w3.org/2000/svg"><path d="m87.22 34.32 45.68 45.68h-91.84zm48.43 24.2 3.58 3.61-3.06 10.8 6.94-6.88 2.4 2.42-10.49 10.41-3.13-3.16 2.7-11.34-6.97 7.04-2.47-2.5zm-103.99 6.08 7.92 8.12 4.5-4.4 2.38 2.45-7.16 6.98-10.3-10.55zm13.26-12.96 2.02 2.06-4.5 4.4 1.9 1.96 3.74-3.64 2.1 2.16-3.72 3.64 2.23 2.29 4.66-4.54 2.01 2.06-7.33 7.15-10.43-10.41 7.31-7.13zm85.77 1.88 2.64 2.66-10.5 10.41-2.64-2.66zm-9.04-9.11 2.7 2.73-7.94 7.87 4.45 4.48-2.56 2.53-7.14-7.2 10.5-10.41zm-69.74.4c2.53-2.3 5.05-.94 5.05-.94 3.4 1.8 1.9 5.82 2 5.8.3-.05 6.89 2.2 6.89 2.2l-2.73 2.66-9.09-2.4 5.63 5.77-2.75 2.68-10.41-10.48zm58.62-11.61 6.38 6.43c1.81 2.63-.22 4.92-.5 5.22l-.04.03c-2.6 2.23-4.96.93-4.96.93-.07.28-2.25 7-2.25 7l-2.77-2.8 2.06-9.38-5.73 5.68-2.7-2.72 10.51-10.4zm-54.93 14.5c-.93-.96-2.04-.23-2.16-.1-.29.27-2.08 1.8-2 1.9l2.48 2.54s.2-.12 1.73-1.6c1.53-1.5-.05-2.75-.05-2.75zm5.87-12.7c2.47-2.4 7.6-2.77 10.56.26 2.4 2.48 3.7 7.08.06 10.63-2.47 2.41-7.03 3.84-10.86-.09-3.5-3.58-2.23-8.38.24-10.8zm7.28 2.93c-2.32-2.37-4.27-1.54-5.23-.6-1.4 1.36-1.5 3.34.41 5.3 2.29 2.35 4.29 2.78 5.92 1.19 1.64-1.6 1.55-3.17-1.1-5.89zm42.41.01-2.47 2.45-.04.04 1.85 1.95c1.18 1.19 2.52.3 2.52.3 1.64-1.55.29-2.57.07-2.79l-.1-.1zm-10.29-14.48 7.3 7.36-2.12 2.1-4.57-4.6-1.71 1.68 3.6 3.63-2.2 2.2-3.59-3.62-2.29 2.27 4.53 4.57-2.16 2.15-7.28-7.34 10.5-10.4zm-24.4-2.62 2.44 10.13 4.07 4.17-2.7 2.64-4.38-4.34-9.29-2.98 2.92-2.86 5.45 2.01-1.6-5.75 3.1-3.02zm11.05-10.84 3.44 3.46-3.78 7.44 7.7-3.48 3.31 3.34-10.5 10.4-2.53-2.55 5.54-5.5-7.58 3.45-1.56-1.58 3.52-7.58-5.65 5.43-2.4-2.42 10.5-10.41z" fill="#555"/></svg>