<svg height="75" width="144" xmlns="http://www.w3.org/2000/svg"><path d="m31.273 55.433c-3.082-.124-5.604-.976-7.576-2.558-.376-.302-1.273-1.208-1.574-1.59-.8-1.016-1.343-2.005-1.706-3.101-1.115-3.376-.541-7.806 1.643-12.668 1.87-4.162 4.755-8.29 9.79-14.007.741-.842 2.95-3.302 2.964-3.302.005 0-.115.21-.267.467-1.309 2.215-2.429 4.823-3.039 7.082-.98 3.623-.862 6.733.346 9.144.834 1.662 2.262 3.1 3.869 3.896 2.813 1.392 6.93 1.507 11.96.337.346-.081 17.502-4.681 38.125-10.223 20.623-5.543 37.5-10.074 37.502-10.07.006.005-47.913 20.717-72.789 31.462-3.94 1.701-4.993 2.131-6.845 2.788-4.734 1.68-8.975 2.48-12.403 2.343z" fill="#555"/></svg>