<svg height="43" width="142" xmlns="http://www.w3.org/2000/svg"><path d="m69.838 26.961h-5.544v3.953h5.338v1.694h-5.339v4.056h5.7v1.695h-7.547v-13.089h7.392v1.692zm4.236 11.399v-13.091h1.694v13.09h-1.694zm25.076-6.368c-.976-.667-1.642-.872-2.362-.872-1.59 0-2.617 1.182-2.617 2.927 0 1.797 1.128 2.875 2.874 2.875.718 0 1.438-.206 2.31-.565v1.643c-.615.256-1.695.514-2.567.514-2.566 0-4.364-1.797-4.364-4.314 0-2.822 1.644-4.619 4.21-4.619 1.026 0 1.695.205 2.516.566v1.846zm7.649-2.257h2.722v1.54h-2.722v4.413c0 .976.718 1.284 1.233 1.284.616 0 1.231-.205 1.949-.614v1.59c-.615.307-1.538.565-2.105.565-1.848 0-2.771-1.18-2.771-2.721v-4.518h-1.488v-.206l3.182-3.13zm8.856 0v2c.873-1.538 1.692-2.154 2.514-2.154.667 0 1.334.306 2.053.974l-.925 1.49c-.512-.514-1.18-.823-1.589-.823-1.18 0-2.053 1.182-2.053 2.618v4.52h-1.694v-8.625zm9.392 8.625v-8.624h1.694v8.624zm12.707-6.368c-.975-.667-1.644-.872-2.362-.872-1.591 0-2.617 1.182-2.617 2.927 0 1.797 1.128 2.875 2.874 2.875.717 0 1.436-.206 2.309-.565v1.643c-.615.256-1.693.514-2.566.514-2.568 0-4.364-1.797-4.364-4.314 0-2.822 1.643-4.619 4.21-4.619 1.027 0 1.694.205 2.516.566v1.846zm-121.624-25.942c-3.241-1.439-5.184-1.944-7.057-1.944-2.016 0-3.312.719-3.312 1.8 0 3.383 11.377 2.449 11.377 10.224 0 4.249-3.601 6.77-8.569 6.77-3.961 0-5.904-1.009-8.064-2.161v-4.825c3.167 2.161 5.112 2.881 7.632 2.881 2.16 0 3.312-.72 3.312-2.087 0-3.603-11.449-2.305-11.449-10.299 0-3.889 3.384-6.409 8.569-6.409 2.52 0 4.753.504 7.561 1.73v4.319zm15.985 15.84c-1.943.649-3.528 1.01-5.113 1.01-5.328 0-8.784-3.097-8.784-7.85 0-4.607 3.6-7.848 8.569-7.848 1.512 0 3.529.36 5.113 1.008v3.529c-1.296-.65-2.738-1.08-3.89-1.08-2.878 0-4.68 1.726-4.68 4.392 0 2.664 1.802 4.465 4.537 4.465 1.152 0 2.16-.29 4.248-1.08v3.455zm12.314-1.87v-6.05c0-2.231-.935-3.311-2.448-3.311-1.081 0-2.016.719-3.17 2.304v9.649h-4.751v-22.324h4.753v9.432h.072c1.369-1.727 2.88-2.52 4.753-2.52 2.809 0 5.543 1.656 5.543 5.76v6.12c-1.583 0-3.527.578-4.751.938zm6.985-1.225v-11.305h4.752v2.16c1.513-1.729 3.024-2.45 4.97-2.45 2.375 0 5.47 1.37 5.47 5.762v9.648h-4.752v-9.216c0-2.16-1.007-3.024-2.376-3.024-1.153 0-2.016.648-3.312 2.52v6.625c-1.584-.434-3.24-.577-4.752-.72zm34.707 3.817v-15.122h4.752v15.12h-4.753zm47.596-10.801h.071c1.368-3.17 2.952-4.61 4.825-4.61.935 0 1.73.362 3.097 1.37l-1.296 4.177c-1.224-.793-2.015-1.082-2.806-1.082-1.73 0-2.882 1.658-3.892 4.392v6.554h-4.752v-15.122h4.752v4.32zm-42.629-10.731c.433 1.224-.36 2.88-1.8 3.673-1.442.864-2.953.576-3.385-.576s.362-2.81 1.803-3.673c1.44-.863 2.95-.576 3.383.575zm35.755 25.574c.154.41-.153.976-.668 1.283-.514.308-1.026.206-1.18-.206-.154-.41.103-.974.616-1.282.513-.309 1.026-.206 1.232.205zm-42.143 4.364c1.182 0 1.95.82 2.003 2.156h-4.313c.206-1.385.977-2.156 2.31-2.156m-2.361 3.286h6.057c0-3.183-1.488-4.723-3.747-4.723-2.361 0-4.005 1.745-4.005 4.363 0 2.36 1.489 4.569 4.159 4.569 1.437 0 2.36-.36 3.439-1.027v-1.642c-1.026.665-2.002 1.027-3.03 1.027-1.641 0-2.616-.874-2.873-2.567m-8.819-20.982c.215-2.089 1.44-3.313 3.313-3.313 1.8 0 3.096 1.297 3.239 3.313zm2.953-6.122c-4.68 0-7.995 3.313-7.995 7.922 0 4.68 3.457 7.776 8.786 7.776 1.224 0 4.034 0 6.768-2.015v-2.953c-2.23 1.585-3.743 2.16-5.616 2.16-2.953 0-4.823-1.584-4.97-4.247h10.804c.288-5.544-3.385-8.642-7.777-8.642zm27.579 11.305c-.937.866-1.8 1.225-2.81 1.225-2.232 0-3.671-1.871-3.671-4.608 0-3.025 1.439-4.752 3.817-4.752.864 0 2.015.361 2.664.864zm0-18.218v7.851c-1.226-.576-2.521-.938-3.89-.938-4.32 0-7.344 3.17-7.344 7.85 0 4.536 3.024 7.849 7.056 7.849 1.584 0 2.88-.432 4.178-1.512v1.223h4.752v-22.323h-4.752zm11.81 13.035c.214-2.089 1.367-3.313 3.24-3.313 1.87 0 3.094 1.297 3.31 3.313zm2.951-6.122c-4.682 0-7.993 3.313-7.993 7.922 0 4.68 3.457 7.776 8.785 7.776 1.153 0 4.03 0 6.769-2.015v-2.953c-2.233 1.585-3.745 2.16-5.616 2.16-3.025 0-4.825-1.584-5.042-4.247h10.873c.215-5.544-3.384-8.642-7.776-8.642zm-61.507 23.906a14.82 14.82 0 0 1 -.755 1.749h-4.306l-.63 1.943h3.773c-.544.784-1.17 1.55-1.875 2.283-4.95 5.145-12 6.755-15.694 3.59-3.694-3.166-2.67-9.942 2.28-15.084 4.95-5.146 12-6.757 15.693-3.591 1.93 1.654 2.572 4.292 2.04 7.168h-4.673l-.63 1.942zm-13.688 6.755c2.299 0 5.114-1.66 5.703-3.883l1.548-5.841c.12-.46.32-.59.896-.596l2.58-.026.65-2.745h-4.913c-2.272 0-5.04 1.75-5.541 3.966l-1.223 5.378c-.097.434-.668.736-1.113.733l-2.77-.026-.787 3.04zm-6.321-8.393h3.452l.63-1.942h-2.857a17.316 17.316 0 0 0 -1.225 1.942zm-1.39 3.692h3.927l.63-1.942h-3.973a13.06 13.06 0 0 0 -.583 1.942z" fill="#555" fill-rule="evenodd"/></svg>