<svg height="165.08743" viewBox="0 0 132.82083 43.679382" width="502" xmlns="http://www.w3.org/2000/svg"><g fill="#555" transform="matrix(.61117936 0 0 .61117936 -94.224717 -74.635924)"><path d="m159.50781 154.91016v-1.10547h1.16797c1.29297 0 1.875-.16407 2.17188-.73047.30859-.58203.32812-1.67578.32421-3.54297v-14.27734h-4.01562c-1.26172.004-1.9375.27343-2.41016.89062-.47656.62109-.74218 1.625-1.08203 3.08203l-.0195.0859h-.92578v-.10938h.11328-.11328v.10938h-.11719l.0977-5.17969h20.15234l.12891 5.17969h-1.01953l-.0156-.0937c-.32422-1.94141-.80078-2.92578-1.42578-3.42188-.625-.5-1.44141-.54687-2.51172-.54687-.19531 0-.39844.004-.60547.004h-3.02343v14.00781c-.004 1.98828.008 3.14844.3125 3.76953.29687.60547.875.76953 2.17968.77344h1.14063v1.10547zm0 0"/><path d="m184.28906 154.91016v-1.10547h.11328c1.08203.004 1.5625-.0352 1.77735-.41016.24218-.38672.25781-1.26172.2539-2.96875v-3.69531c0-1.07813-.0469-2.71094-1.13672-3.3125-.66796-.3711-1.55078-.40235-2.25781-.13672-.58594.22266-1.10156.60547-1.55469 1.03125-.24609.23047-.47656.46875-.69921.71875-.11719.13281-.61329.57031-.61329.74609v4.64844c-.004 1.66016.008 2.53516.23047 2.9375.19922.39063.625.44141 1.60938.44141h.11328v1.10547h-6.52734v-1.10547h.11328c1.09765.004 1.58984-.0273 1.80468-.39844.2461-.38281.26172-1.25781.25782-2.98047v-12.09766c0-1.08593-.008-1.80078-.24219-2.19921-.22656-.39454-.67578-.57032-1.69531-.57422h-.11328v-1.08203h.11328c1.25781.004 2.99218-.27735 3.96484-.64454l.0195-.008h.35156v10.34375c1.39454-1.53125 2.80079-2.39453 4.38672-2.39453 1.39844 0 2.47657.37109 3.19532 1.11719.72265.74609 1.07812 1.85156 1.07812 3.28125v4.25781c-.004 1.70703.0117 2.58203.24609 2.96875.21485.375.6836.41406 1.75.41016h.11329v1.10547zm0 0"/><path d="m193.94531 153.76953c-1.22265-1.10547-2.10156-2.79297-2.09765-5.08984 0-1.94922.64062-3.67578 1.73828-4.91797 1.09375-1.23828 2.64062-1.99219 4.42578-1.99219 3.29297 0 5.20703 2.57813 5.29687 4.96484l.004.11719h-8.67188c-.0273.40625-.0547.86328-.0547 1.34375 0 .78906.0156 2.30078.52343 3.60156.51172 1.30079 1.47657 2.375 3.42969 2.37891.67188 0 2.61328-.10547 3.72656-2.22656l.0312-.0586h1.03907l-.0273.13672c-.10547.47657-1.34765 3.375-5.17187 3.37891-1.39453 0-2.96485-.53125-4.19141-1.63672m6.48828-7.98047c.0234-.125.043-.19922.043-.39844v-.0312c-.0234-1.80078-1.38281-2.48046-2.58984-2.48828-2.34375-.004-2.98828 2.03125-3.15625 2.91797zm0 0"/><path d="m207.94922 154.73828v-1.24609h1.19922c4.02343 0 4.02343-1.05469 4.02343-7.1836v-15.28125c0-6.94531-.47265-6.71484-5.21484-6.71484v-1.28125c3.40234-.14453 8.75781-.33594 11.48828-.33594 1.82031 0 12.98047-.38281 12.98047 7.56641 0 6.08203-6.72656 7.13672-8.83203 7.42578 5.31641.28516 10.55469 2.34766 10.55469 8.33203 0 6.99609-6.12891 8.71875-11.6836 8.71875zm9.82031-17.625c6.08203.14063 9.72266-.67187 9.72266-6.60937 0-5.75-3.35157-6.95703-9.72266-6.38282zm0 8.14063c0 7.28125 0 8.1914 3.83203 8.1914 7.03906 0 7.42188-4.83984 7.42188-7.47265 0-5.125-2.20313-8-11.25391-7.51954zm0 0"/><path d="m243.17578 148.17578c0 4.88672 0 5.31641 2.82422 5.31641h.67187v1.24609h-10.15625v-1.24609c3.30469 0 3.30469 0 3.30469-5.31641v-5.41016c0-5.3164 0-5.27734-3.30469-5.27734v-1.28516c2.15625-.28906 4.64844-1.05468 5.41407-1.29296l.33593-.0977c.23829.76562.66797 2.16406.66797 4.89453 1.48438-3.54297 4.35938-4.89453 6.13282-4.89453 2.20312 0 3.35156 1.77344 3.35156 2.92187 0 .86329-.66797 1.62891-1.57813 1.62891-1.15234 0-1.48828-.95703-1.67968-1.4375-.23829-.52734-.57422-1.24219-1.33985-1.24219-1.33984 0-4.64453 2.29688-4.64453 7.1836zm0 0"/><path d="m260.09375 148.17578c0 4.16797-.33594 5.31641 2.63281 5.31641h.71875v1.24609h-10.34375v-1.24609h.8125c2.15625 0 2.82422-.0937 2.82422-3.44922v-7.42969c0-5.26953-.0469-5.26953-3.39844-5.26953v-1.28516c1.4375-.0469 4.26172-.67187 6.27344-1.24609h.48047zm-2.15625-25.625c1.33984 0 2.39453 1.14844 2.39453 2.49219 0 1.33984-1.05469 2.48828-2.39453 2.48828s-2.44141-1.14844-2.44141-2.48828c0-1.34375 1.05469-2.49219 2.44141-2.49219"/><path d="m271.11719 137.34375v10.61719c0 2.95312 0 5.65234 2.875 5.65234 1.49218 0 2.26562-1.28516 2.66406-1.91797l.97266.69531c-1.48438 3.11329-4.64454 3.11329-4.98047 3.11329-1.77344 0-3.44922-.95704-4.16407-2.34766-.625-1.14844-.71875-2.15234-.71875-5.65234v-10.16016h-2.78125v-1.28516c2.10938-.0977 4.46094-1.74218 5.17188-6.46484h.96094v6.45312h5.64062v1.29688zm0 0"/><path d="m285.55859 147.98437c0 4.16797-.33593 5.50782 2.63282 5.50782h.71875v1.24609h-10.34766v-1.24609h.81641c2.15625 0 2.82421-.48047 2.82421-3.83203v-7.05079c0-5.26562-.28515-5.26562-3.64062-5.26562v-1.28516c1.4375-.0469 4.50391-.67187 6.51562-1.24609h.48047zm-2.15625-25.43359c1.33985 0 2.39453 1.14844 2.39453 2.49219 0 1.33984-1.05468 2.48828-2.39453 2.48828-1.34375 0-2.4414-1.14844-2.4414-2.48828 0-1.34375 1.05078-2.49219 2.4414-2.49219"/><path d="m291.69922 149.03906h1.00781c.48047 2.30078 2.15234 5.21875 5.55469 5.21875 3.0664 0 3.54297-2.34375 3.54297-3.20703 0-2.49219-2.10547-3.49609-4.64453-4.74219-2.30079-1.14843-5.41407-2.68359-5.41407-6.17968 0-2.29688 1.02344-5.31641 5.125-5.31641 1.72657 0 3.06641.71875 4.16797 2.01172.38281-.42969.86328-1.57813.91016-1.67578h.86328v5.9375h-.96094c-.38281-1.82032-1.8164-4.98828-4.88281-4.98828-2.05859 0-3.11328 1.30078-3.11328 2.6914 0 2.20313 2.29687 3.25781 4.5039 4.26172 2.53516 1.14844 5.7461 2.63281 5.7461 6.80078 0 3.57813-2.39453 5.65235-5.79688 5.65235-2.48828 0-3.66406-.98047-4.76953-2.03516-.47656.52734-.83203 1.41406-.92969 1.84375h-.91015zm0 0"/><path d="m275.08594 186.6875h1.00781c.48047 2.29687 2.15625 5.21875 5.55469 5.21875 3.0664 0 3.54297-2.34375 3.54297-3.20703 0-2.49219-2.10547-3.4961-4.64454-4.74219-2.29687-1.14844-5.3125-2.68359-5.41015-6.17969-.0742-2.42578 1.16406-5.3164 5.125-5.3164 1.72265 0 3.0625.71875 4.16406 2.01172.38281-.42969.86328-1.58204.91016-1.67579h.86328v5.9375h-.95703c-.38672-1.82031-1.82032-4.98828-4.88672-4.98828-2.0586 0-3.11328 1.30078-3.11328 2.69141 0 2.20312 2.30078 3.25781 4.5039 4.26172 2.53907 1.15234 5.7461 2.63281 5.7461 6.80078 0 3.30469-2.39453 5.65234-5.79297 5.65234-2.49219 0-3.625-1.05078-4.73047-2.10547-.47656.52735-.875 1.48438-.97266 1.91407h-.91015zm0 0"/><path d="m325.81641 147.98437c0 5.26954 0 5.50782 3.2539 5.50782v1.24609h-9.91406v-1.24609c3.30469 0 3.30469-.23828 3.30469-5.50782v-5.75781c0-4.45312-1.39063-5.875-4.16407-5.74609-2.20312.10156-4.3125 2.25-5.84375 4.21484v7.28906c0 5.125 0 5.50782 3.01563 5.50782v1.24609h-9.72266v-1.24609c3.35157 0 3.35157-.19141 3.35157-5.50782v-18.6875c0-3.35546 0-4.45703-3.16016-4.45703v-1.28125c1.96484 0 4.64453-.43359 6.17969-1.00781h.33593v16.19922c2.28516-2.70703 4.45313-3.9375 6.94141-3.9375 4.26563 0 6.42188 2.25 6.42188 6.60937zm0 0"/><path d="m240.80078 160.67969h9.76953v1.24609h-1.19531c-4.16797 0-4.26563.38281-4.26563 6.84766v15.17968c0 6.13282 0 7.1836 4.02344 7.1836h1.4375v1.25h-15.18359v-1.25h1.10156c4.02344 0 4.02344-1.05078 4.02344-7.1836v-19.5664l-12.55078 28h-1.10157l-12.54687-28.52735v21.00391c0 4.35938 1.4375 5.94141 4.98047 6.27344v1.25h-11.30469v-1.25c2.92188-.28516 4.98047-1.19531 4.98047-6.5586v-15.99609c0-6.41797.0508-6.65625-4.11719-6.65625h-.86328v-1.24609h9.62891l11.51562 25.9375zm0 0"/><path d="m269.41406 185.5625c0 5.125 0 5.55469 2.92188 5.55469v1.26953c-1.62891 0-3.83203.14453-5.125.76562h-.33594c-.76563-1.38672-.8125-3.28515-.8125-4.38672-1.19922 2.15625-3.83594 4.38672-7.33984 4.38672-5.55469 0-5.9375-4.40625-5.9375-6.41797v-6.7539c0-5.21875 0-5.50781-3.16016-5.50781v-1.2461h6.51172v13.25c0 1.81641 0 4.83203 3.6914 4.83203 1.29297 0 6.23438-1.14843 6.23438-6.84765v-4.48047c0-5.31641 0-5.50781-3.35547-5.50781v-1.2461h6.70703zm0 0"/><path d="m295.01172 179.95312c-.0469.67188-.0977 1.22657-.0977 2.03907 0 2.4414.0977 9.91406 6.27735 9.91406 1.05468 0 4.30859-.0937 6.08203-3.83203h1.10156c-.14453.67187-2.01172 5.07812-7.80859 5.07812-4.21485 0-9.53125-3.20703-9.53125-10.20312 0-5.9375 3.92968-10.48828 9.33984-10.48828 4.98437 0 7.85547 3.89843 8 7.49218zm9.24219-1.17187c.0508-.28516.0976-.52344.0976-.95703 0-3.16016-2.25-4.3086-4.16797-4.3086-4.26172 0-4.88672 4.02344-5.07422 5.26563zm0 0"/><path d="m329.57812 185.58203c0 5.125 0 5.55469 2.92188 5.55469v1.25c-1.62891 0-3.83203.14453-5.125.76562h-.33594c-.76562-1.39062-.8125-3.49609-.8125-4.59765-1.19531 2.15625-3.83203 4.59765-7.32812 4.59765-5.5586 0-5.94141-4.40625-5.94141-6.41797v-6.73437c0-5.21875 0-5.50781-3.16016-5.50781v-1.26563l6.51563.21094v13.05859c0 1.79688 0 4.8125 3.6875 4.8125 1.29297 0 6.22656-1.14843 6.22656-6.84765v-4.46094c0-5.31641 0-5.50781-3.35156-5.50781v-1.26563h6.70312zm0 0"/><path d="m347.25 174.30078c-3.21094 0-5.22266 2.68359-6.17969 4.12109v7.20704c0 5.17578 0 5.50781 3.16016 5.50781v1.25h-9.67188v-1.25c3.16016 0 3.16016-.28516 3.16016-5.50781v-5.3125c0-5.21875 0-5.50782-3.16016-5.50782v-1.24609c1.625-.19141 3.6875-.67188 5.26563-1.10156h.625c.38281 1.10156.57422 2.96875.62109 3.97656 2.01172-2.39453 4.50391-3.97656 7.42578-3.97656 4.3086 0 5.55469 2.63281 5.79297 4.16797 2.30078-2.6836 4.69531-4.16797 7.61719-4.16797 4.21484 0 5.98828 2.30078 5.98828 6.22656v6.94141c0 5.125 0 5.50781 3.16016 5.50781v1.25h-9.82032v-1.25c3.30469 0 3.30469-.23828 3.30469-5.50781v-5.60157c0-2.53515 0-5.74609-3.8789-5.74609-3.20704 0-5.21875 2.68359-6.17579 4.11719v7.23047c0 5.17578 0 5.50781 3.16016 5.50781v1.25h-9.67578v-1.25c3.16016 0 3.16016-.38281 3.16016-5.50781v-5.29297c0-2.10547.38281-6.03516-3.87891-6.03516"/></g></svg>