<svg height="232.154" viewBox="0 0 282.108 61.424" width="1066.235" xmlns="http://www.w3.org/2000/svg"><switch fill="#555"><g fill="#555"><path d="m30.71 0c-16.96 0-30.71 13.749-30.71 30.712 0 16.96 13.75 30.712 30.71 30.712 16.961 0 30.712-13.752 30.712-30.712 0-16.963-13.75-30.712-30.712-30.712zm0 57.957c-15.047 0-27.247-12.199-27.247-27.245 0-15.049 12.199-27.247 27.247-27.247s27.247 12.198 27.247 27.247c0 15.046-12.199 27.245-27.247 27.245z"/><path d="m53.032 43.08-4.459-5.207c-.055-.063-.12-.117-.195-.161-.228-.13-.496-.133-.717-.026-.681.322-1.504.316-2.206-.089-.625-.358-1.023-.962-1.147-1.618h.001c-.314-1.671-1.326-3.199-2.913-4.114l-1.997-1.152 11.353-6.554-1.405-2.435-12.758 7.365-1.533-.884v-1.771l12.757-7.366-1.405-2.434-11.352 6.555v-2.305c0-1.833-.818-3.474-2.107-4.58-.507-.434-.829-1.08-.829-1.801 0-.811.406-1.529 1.027-1.957.203-.138.334-.372.334-.635 0-.087-.014-.171-.04-.249l-2.279-6.464c-.063-.189-.241-.324-.45-.324-.208 0-.386.135-.449.324l-2.278 6.464c-.027.078-.041.162-.041.249 0 .263.132.497.333.635h.001c.62.428 1.027 1.146 1.027 1.957 0 .721-.321 1.367-.83 1.801-1.29 1.106-2.106 2.748-2.106 4.58v2.305l-11.353-6.555-1.405 2.434 12.758 7.366v1.772l-1.533.883-12.758-7.365-1.404 2.435 11.353 6.554-1.998 1.152c-1.587.915-2.599 2.443-2.912 4.114-.124.656-.521 1.26-1.146 1.618-.703.405-1.525.411-2.207.089-.222-.106-.489-.104-.716.026-.076.044-.142.099-.195.161l-4.46 5.205c-.131.149-.159.369-.055.553.104.179.31.266.504.229l6.738-1.262c.081-.016.162-.045.236-.088.229-.133.363-.362.383-.608.061-.75.479-1.462 1.181-1.867.623-.358 1.344-.404 1.975-.183 1.603.564 3.432.451 5.019-.467l1.997-1.15v13.108h2.81v-14.732l1.534-.885 1.533.885v14.731h2.811v-13.108l1.996 1.15c1.587.918 3.417 1.031 5.02.467.629-.222 1.351-.176 1.975.183.702.405 1.119 1.117 1.18 1.867.019.246.154.476.381.608.075.043.156.072.237.088l6.737 1.262c.195.037.4-.05.505-.229.101-.183.072-.402-.058-.55zm-26.664-8.09-3.747 2.162c-.734.424-1.671.172-2.094-.561-.423-.735-.172-1.672.562-2.096l3.747-2.163 1.533.886v1.772zm2.81-14.504c0-.848.686-1.535 1.533-1.535s1.534.687 1.534 1.535v4.325l-1.533.884-1.534-.884zm3.297 11.244-1.763 1.017-1.765-1.018v-2.037l1.765-1.019 1.763 1.019zm8.421 4.862c-.424.732-1.363.984-2.096.561l-3.746-2.164v-1.77l1.533-.886 3.746 2.163c.734.424.985 1.36.563 2.096z"/><path d="m235.19 24.473h-10.25v-20.492h-9.363v53.461h9.363v-23.477h10.25v23.477h9.567v-53.461h-9.567z"/><path d="m68.258 3.981 10.391 32.781v20.68h10.401v-21.742l10.772-31.719h-8.753l-7.071 20.828-6.401-20.828z"/><path d="m158.56 3.981-4.485 25.431-5.201-25.431h-14.617v53.461h8.382v-40.299l7.153 35.033h7.828l6.344-35.602v40.868h9.828v-53.461z"/><path d="m273.286 3.981h-14.479l-9.77 53.461h8.664l2.072-12.44h10.777l2.01 12.44h9.547zm-12.027 32.109 3.984-23.91 3.867 23.91z"/><path d="m187.843 3.981-9.773 53.461h8.666l2.074-12.44h10.777l2.01 12.44h9.545l-8.822-53.461zm2.451 32.109 3.984-23.91 3.867 23.91z"/><path d="m106.521 3.981-9.773 53.461h8.667l2.074-12.44h10.776l2.011 12.44h9.543l-8.821-53.461zm2.452 32.109 3.984-23.91 3.866 23.91z"/></g></switch></svg>