<svg width="275" height="151" xmlns="http://www.w3.org/2000/svg" xmlns:xlink="http://www.w3.org/1999/xlink">
  <defs>
    <path d="M23.975 75.487a2.486 2.486 0 1 1-4.975 0 2.487 2.487 0 0 1 4.975 0" id="b"/>
    <filter x="-371.9%" y="-291.5%" width="843.7%" height="843.9%" filterUnits="objectBoundingBox" id="a">
      <feOffset dy="4" in="SourceAlpha" result="shadowOffsetOuter1"/>
      <feGaussianBlur stdDeviation="5.5" in="shadowOffsetOuter1" result="shadowBlurOuter1"/>
      <feColorMatrix values="0 0 0 0 0.790142532 0 0 0 0 0.893348712 0 0 0 0 0.927508503 0 0 0 1 0" in="shadowBlurOuter1"/>
    </filter>
    <path d="M43.975 3.487a2.486 2.486 0 1 1-4.975 0 2.487 2.487 0 0 1 4.975 0" id="d"/>
    <filter x="-371.9%" y="-291.5%" width="843.7%" height="843.9%" filterUnits="objectBoundingBox" id="c">
      <feOffset dy="4" in="SourceAlpha" result="shadowOffsetOuter1"/>
      <feGaussianBlur stdDeviation="5.5" in="shadowOffsetOuter1" result="shadowBlurOuter1"/>
      <feColorMatrix values="0 0 0 0 0.790142532 0 0 0 0 0.893348712 0 0 0 0 0.927508503 0 0 0 1 0" in="shadowBlurOuter1"/>
    </filter>
    <path d="M4.975 22.487a2.486 2.486 0 1 1-4.975 0 2.487 2.487 0 0 1 4.975 0" id="f"/>
    <filter x="-371.9%" y="-291.5%" width="843.7%" height="843.9%" filterUnits="objectBoundingBox" id="e">
      <feOffset dy="4" in="SourceAlpha" result="shadowOffsetOuter1"/>
      <feGaussianBlur stdDeviation="5.5" in="shadowOffsetOuter1" result="shadowBlurOuter1"/>
      <feColorMatrix values="0 0 0 0 0.790142532 0 0 0 0 0.893348712 0 0 0 0 0.927508503 0 0 0 1 0" in="shadowBlurOuter1"/>
    </filter>
    <path d="M209 2.5a1.5 1.5 0 1 1-2.999 0 1.5 1.5 0 0 1 3 0" id="h"/>
    <filter x="-616.5%" y="-483.3%" width="1333.1%" height="1333.3%" filterUnits="objectBoundingBox" id="g">
      <feOffset dy="4" in="SourceAlpha" result="shadowOffsetOuter1"/>
      <feGaussianBlur stdDeviation="5.5" in="shadowOffsetOuter1" result="shadowBlurOuter1"/>
      <feColorMatrix values="0 0 0 0 0.790142532 0 0 0 0 0.893348712 0 0 0 0 0.927508503 0 0 0 1 0" in="shadowBlurOuter1"/>
    </filter>
    <path d="M237 100.5a1.5 1.5 0 1 1-2.999 0 1.5 1.5 0 0 1 3 0" id="j"/>
    <filter x="-616.5%" y="-483.3%" width="1333.1%" height="1333.3%" filterUnits="objectBoundingBox" id="i">
      <feOffset dy="4" in="SourceAlpha" result="shadowOffsetOuter1"/>
      <feGaussianBlur stdDeviation="5.5" in="shadowOffsetOuter1" result="shadowBlurOuter1"/>
      <feColorMatrix values="0 0 0 0 0.790142532 0 0 0 0 0.893348712 0 0 0 0 0.927508503 0 0 0 1 0" in="shadowBlurOuter1"/>
    </filter>
    <path d="M98 4.5a1.5 1.5 0 1 1-2.999 0 1.5 1.5 0 0 1 3 0" id="l"/>
    <filter x="-616.5%" y="-483.3%" width="1333.1%" height="1333.3%" filterUnits="objectBoundingBox" id="k">
      <feOffset dy="4" in="SourceAlpha" result="shadowOffsetOuter1"/>
      <feGaussianBlur stdDeviation="5.5" in="shadowOffsetOuter1" result="shadowBlurOuter1"/>
      <feColorMatrix values="0 0 0 0 0.790142532 0 0 0 0 0.893348712 0 0 0 0 0.927508503 0 0 0 1 0" in="shadowBlurOuter1"/>
    </filter>
    <path d="M229.487 82.974a2.486 2.486 0 1 1-.001-4.973 2.486 2.486 0 0 1 .001 4.973z" id="n"/>
    <filter x="-371.9%" y="-291.5%" width="843.9%" height="843.9%" filterUnits="objectBoundingBox" id="m">
      <feOffset dy="4" in="SourceAlpha" result="shadowOffsetOuter1"/>
      <feGaussianBlur stdDeviation="5.5" in="shadowOffsetOuter1" result="shadowBlurOuter1"/>
      <feColorMatrix values="0 0 0 0 0.790142532 0 0 0 0 0.893348712 0 0 0 0 0.927508503 0 0 0 1 0" in="shadowBlurOuter1"/>
    </filter>
    <path d="M247.487 39.974a2.486 2.486 0 1 1-.001-4.973 2.486 2.486 0 0 1 .001 4.973z" id="p"/>
    <filter x="-371.9%" y="-291.5%" width="843.9%" height="843.9%" filterUnits="objectBoundingBox" id="o">
      <feOffset dy="4" in="SourceAlpha" result="shadowOffsetOuter1"/>
      <feGaussianBlur stdDeviation="5.5" in="shadowOffsetOuter1" result="shadowBlurOuter1"/>
      <feColorMatrix values="0 0 0 0 0.790142532 0 0 0 0 0.893348712 0 0 0 0 0.927508503 0 0 0 1 0" in="shadowBlurOuter1"/>
    </filter>
    <path d="M174.5 9a1.5 1.5 0 1 1 0-3 1.5 1.5 0 0 1 0 3z" id="r"/>
    <filter x="-616.7%" y="-483.3%" width="1333.3%" height="1333.3%" filterUnits="objectBoundingBox" id="q">
      <feOffset dy="4" in="SourceAlpha" result="shadowOffsetOuter1"/>
      <feGaussianBlur stdDeviation="5.5" in="shadowOffsetOuter1" result="shadowBlurOuter1"/>
      <feColorMatrix values="0 0 0 0 0.790142532 0 0 0 0 0.893348712 0 0 0 0 0.927508503 0 0 0 1 0" in="shadowBlurOuter1"/>
    </filter>
    <path d="M18.5 11a1.5 1.5 0 1 1 0-3 1.5 1.5 0 0 1 0 3z" id="t"/>
    <filter x="-616.7%" y="-483.3%" width="1333.3%" height="1333.3%" filterUnits="objectBoundingBox" id="s">
      <feOffset dy="4" in="SourceAlpha" result="shadowOffsetOuter1"/>
      <feGaussianBlur stdDeviation="5.5" in="shadowOffsetOuter1" result="shadowBlurOuter1"/>
      <feColorMatrix values="0 0 0 0 0.790142532 0 0 0 0 0.893348712 0 0 0 0 0.927508503 0 0 0 1 0" in="shadowBlurOuter1"/>
    </filter>
    <path d="M243.324 59.162a2.162 2.162 0 1 1-4.324 0 2.162 2.162 0 0 1 4.324 0" id="v"/>
    <filter x="-427.8%" y="-335.3%" width="955.7%" height="955.7%" filterUnits="objectBoundingBox" id="u">
      <feOffset dy="4" in="SourceAlpha" result="shadowOffsetOuter1"/>
      <feGaussianBlur stdDeviation="5.5" in="shadowOffsetOuter1" result="shadowBlurOuter1"/>
      <feColorMatrix values="0 0 0 0 0.790142532 0 0 0 0 0.893348712 0 0 0 0 0.927508503 0 0 0 1 0" in="shadowBlurOuter1"/>
    </filter>
    <path d="M156.324 2.162a2.162 2.162 0 1 1-4.324 0 2.162 2.162 0 0 1 4.324 0" id="x"/>
    <filter x="-427.8%" y="-335.3%" width="955.7%" height="955.7%" filterUnits="objectBoundingBox" id="w">
      <feOffset dy="4" in="SourceAlpha" result="shadowOffsetOuter1"/>
      <feGaussianBlur stdDeviation="5.5" in="shadowOffsetOuter1" result="shadowBlurOuter1"/>
      <feColorMatrix values="0 0 0 0 0.790142532 0 0 0 0 0.893348712 0 0 0 0 0.927508503 0 0 0 1 0" in="shadowBlurOuter1"/>
    </filter>
    <path d="M9.324 57.162a2.162 2.162 0 1 1-4.324 0 2.162 2.162 0 0 1 4.324 0" id="z"/>
    <filter x="-427.8%" y="-335.3%" width="955.7%" height="955.7%" filterUnits="objectBoundingBox" id="y">
      <feOffset dy="4" in="SourceAlpha" result="shadowOffsetOuter1"/>
      <feGaussianBlur stdDeviation="5.5" in="shadowOffsetOuter1" result="shadowBlurOuter1"/>
      <feColorMatrix values="0 0 0 0 0.790142532 0 0 0 0 0.893348712 0 0 0 0 0.927508503 0 0 0 1 0" in="shadowBlurOuter1"/>
    </filter>
    <path d="M66.324 27.162a2.162 2.162 0 1 1-4.324 0 2.162 2.162 0 0 1 4.324 0" id="B"/>
    <filter x="-427.8%" y="-335.3%" width="955.7%" height="955.7%" filterUnits="objectBoundingBox" id="A">
      <feOffset dy="4" in="SourceAlpha" result="shadowOffsetOuter1"/>
      <feGaussianBlur stdDeviation="5.5" in="shadowOffsetOuter1" result="shadowBlurOuter1"/>
      <feColorMatrix values="0 0 0 0 0.790142532 0 0 0 0 0.893348712 0 0 0 0 0.927508503 0 0 0 1 0" in="shadowBlurOuter1"/>
    </filter>
    <path d="M254.324 3.162a2.162 2.162 0 1 1-4.324 0 2.162 2.162 0 0 1 4.324 0" id="D"/>
    <filter x="-427.8%" y="-335.3%" width="955.7%" height="955.7%" filterUnits="objectBoundingBox" id="C">
      <feOffset dy="4" in="SourceAlpha" result="shadowOffsetOuter1"/>
      <feGaussianBlur stdDeviation="5.5" in="shadowOffsetOuter1" result="shadowBlurOuter1"/>
      <feColorMatrix values="0 0 0 0 0.790142532 0 0 0 0 0.893348712 0 0 0 0 0.927508503 0 0 0 1 0" in="shadowBlurOuter1"/>
    </filter>
    <path d="M68.324 9.162a2.162 2.162 0 1 1-4.324 0 2.162 2.162 0 0 1 4.324 0" id="F"/>
    <filter x="-427.8%" y="-335.3%" width="955.7%" height="955.7%" filterUnits="objectBoundingBox" id="E">
      <feOffset dy="4" in="SourceAlpha" result="shadowOffsetOuter1"/>
      <feGaussianBlur stdDeviation="5.5" in="shadowOffsetOuter1" result="shadowBlurOuter1"/>
      <feColorMatrix values="0 0 0 0 0.790142532 0 0 0 0 0.893348712 0 0 0 0 0.927508503 0 0 0 1 0" in="shadowBlurOuter1"/>
    </filter>
    <path d="M23 117.5a1.5 1.5 0 1 1-3 0 1.5 1.5 0 0 1 3 0" id="H"/>
    <filter x="-616.7%" y="-483.3%" width="1333.3%" height="1333.3%" filterUnits="objectBoundingBox" id="G">
      <feOffset dy="4" in="SourceAlpha" result="shadowOffsetOuter1"/>
      <feGaussianBlur stdDeviation="5.5" in="shadowOffsetOuter1" result="shadowBlurOuter1"/>
      <feColorMatrix values="0 0 0 0 0.790142532 0 0 0 0 0.893348712 0 0 0 0 0.927508503 0 0 0 1 0" in="shadowBlurOuter1"/>
    </filter>
    <path d="M18 94.5a1.5 1.5 0 1 1-3 .001 1.5 1.5 0 0 1 3 0" id="J"/>
    <filter x="-616.7%" y="-483.2%" width="1333.3%" height="1332.9%" filterUnits="objectBoundingBox" id="I">
      <feOffset dy="4" in="SourceAlpha" result="shadowOffsetOuter1"/>
      <feGaussianBlur stdDeviation="5.5" in="shadowOffsetOuter1" result="shadowBlurOuter1"/>
      <feColorMatrix values="0 0 0 0 0.790142532 0 0 0 0 0.893348712 0 0 0 0 0.927508503 0 0 0 1 0" in="shadowBlurOuter1"/>
    </filter>
    <path d="M20.532 36.767a2.766 2.766 0 1 1-5.533.001 2.766 2.766 0 0 1 5.533-.001" id="L"/>
    <filter x="-334.4%" y="-262%" width="768.8%" height="768.6%" filterUnits="objectBoundingBox" id="K">
      <feOffset dy="4" in="SourceAlpha" result="shadowOffsetOuter1"/>
      <feGaussianBlur stdDeviation="5.5" in="shadowOffsetOuter1" result="shadowBlurOuter1"/>
      <feColorMatrix values="0 0 0 0 0.790142532 0 0 0 0 0.893348712 0 0 0 0 0.927508503 0 0 0 1 0" in="shadowBlurOuter1"/>
    </filter>
    <path d="M229.533 118.767a1.767 1.767 0 1 1-3.533 0 1.767 1.767 0 0 1 3.533 0" id="N"/>
    <filter x="-523.7%" y="-410.3%" width="1147.4%" height="1147%" filterUnits="objectBoundingBox" id="M">
      <feOffset dy="4" in="SourceAlpha" result="shadowOffsetOuter1"/>
      <feGaussianBlur stdDeviation="5.5" in="shadowOffsetOuter1" result="shadowBlurOuter1"/>
      <feColorMatrix values="0 0 0 0 0.790142532 0 0 0 0 0.893348712 0 0 0 0 0.927508503 0 0 0 1 0" in="shadowBlurOuter1"/>
    </filter>
    <path d="M237 11a1 1 0 1 1-2 0 1 1 0 0 1 2 0" id="P"/>
    <filter x="-925%" y="-724.7%" width="1950%" height="1949.3%" filterUnits="objectBoundingBox" id="O">
      <feOffset dy="4" in="SourceAlpha" result="shadowOffsetOuter1"/>
      <feGaussianBlur stdDeviation="5.5" in="shadowOffsetOuter1" result="shadowBlurOuter1"/>
      <feColorMatrix values="0 0 0 0 0.790142532 0 0 0 0 0.893348712 0 0 0 0 0.927508503 0 0 0 1 0" in="shadowBlurOuter1"/>
    </filter>
    <path d="M126 8a1 1 0 1 1-2 0 1 1 0 0 1 2 0" id="R"/>
    <filter x="-925%" y="-724.7%" width="1950%" height="1949.3%" filterUnits="objectBoundingBox" id="Q">
      <feOffset dy="4" in="SourceAlpha" result="shadowOffsetOuter1"/>
      <feGaussianBlur stdDeviation="5.5" in="shadowOffsetOuter1" result="shadowBlurOuter1"/>
      <feColorMatrix values="0 0 0 0 0.790142532 0 0 0 0 0.893348712 0 0 0 0 0.927508503 0 0 0 1 0" in="shadowBlurOuter1"/>
    </filter>
    <path d="M235.458 27.729a3.729 3.729 0 1 1-7.458 0 3.729 3.729 0 0 1 7.458 0" id="T"/>
    <filter x="-248.1%" y="-194.4%" width="596.1%" height="596.1%" filterUnits="objectBoundingBox" id="S">
      <feOffset dy="4" in="SourceAlpha" result="shadowOffsetOuter1"/>
      <feGaussianBlur stdDeviation="5.5" in="shadowOffsetOuter1" result="shadowBlurOuter1"/>
      <feColorMatrix values="0 0 0 0 0.790142532 0 0 0 0 0.893348712 0 0 0 0 0.927508503 0 0 0 1 0" in="shadowBlurOuter1"/>
    </filter>
    <rect id="U" width="190" height="130" rx="6"/>
    <path id="W" d="M24.526.045H0v24.527h24.526V.045z"/>
  </defs>
  <g fill="none" fill-rule="evenodd">
    <path d="M2 1h265v150H2z"/>
    <g transform="translate(10 6)">
      <use fill="#000" filter="url(#a)" xlink:href="#b"/>
      <use fill="#FF9D3F" xlink:href="#b"/>
    </g>
    <g transform="translate(10 6)">
      <use fill="#000" filter="url(#c)" xlink:href="#d"/>
      <use fill="#FF9D3F" xlink:href="#d"/>
    </g>
    <g transform="translate(10 6)">
      <use fill="#000" filter="url(#e)" xlink:href="#f"/>
      <use fill="#FF9D3F" xlink:href="#f"/>
    </g>
    <g transform="translate(10 6)">
      <use fill="#000" filter="url(#g)" xlink:href="#h"/>
      <use fill="#FF9D3F" xlink:href="#h"/>
    </g>
    <g transform="translate(10 6)">
      <use fill="#000" filter="url(#i)" xlink:href="#j"/>
      <use fill="#FF9D3F" xlink:href="#j"/>
    </g>
    <g transform="translate(10 6)">
      <use fill="#000" filter="url(#k)" xlink:href="#l"/>
      <use fill="#FF9D3F" xlink:href="#l"/>
    </g>
    <g transform="translate(10 6)">
      <use fill="#000" filter="url(#m)" xlink:href="#n"/>
      <use fill="#E7E7E7" xlink:href="#n"/>
    </g>
    <g transform="translate(10 6)">
      <use fill="#000" filter="url(#o)" xlink:href="#p"/>
      <use fill="#E7E7E7" xlink:href="#p"/>
    </g>
    <g transform="translate(10 6)">
      <use fill="#000" filter="url(#q)" xlink:href="#r"/>
      <use fill="#E7E7E7" xlink:href="#r"/>
    </g>
    <g transform="translate(10 6)">
      <use fill="#000" filter="url(#s)" xlink:href="#t"/>
      <use fill="#E7E7E7" xlink:href="#t"/>
    </g>
    <g transform="translate(10 6)">
      <use fill="#000" filter="url(#u)" xlink:href="#v"/>
      <use fill="#1CAAD9" xlink:href="#v"/>
    </g>
    <g transform="translate(10 6)">
      <use fill="#000" filter="url(#w)" xlink:href="#x"/>
      <use fill="#1CAAD9" xlink:href="#x"/>
    </g>
    <g transform="translate(10 6)">
      <use fill="#000" filter="url(#y)" xlink:href="#z"/>
      <use fill="#1CAAD9" xlink:href="#z"/>
    </g>
    <g transform="translate(10 6)">
      <use fill="#000" filter="url(#A)" xlink:href="#B"/>
      <use fill="#1CAAD9" xlink:href="#B"/>
    </g>
    <g transform="translate(10 6)">
      <use fill="#000" filter="url(#C)" xlink:href="#D"/>
      <use fill="#1CAAD9" xlink:href="#D"/>
    </g>
    <g transform="translate(10 6)">
      <use fill="#000" filter="url(#E)" xlink:href="#F"/>
      <use fill="#1CAAD9" xlink:href="#F"/>
    </g>
    <g transform="translate(10 6)">
      <use fill="#000" filter="url(#G)" xlink:href="#H"/>
      <use fill="#1CAAD9" xlink:href="#H"/>
    </g>
    <g transform="translate(10 6)">
      <use fill="#000" filter="url(#I)" xlink:href="#J"/>
      <use fill="#E7E7E7" xlink:href="#J"/>
    </g>
    <g transform="translate(10 6)">
      <use fill="#000" filter="url(#K)" xlink:href="#L"/>
      <use fill="#E7E7E7" xlink:href="#L"/>
    </g>
    <g transform="translate(10 6)">
      <use fill="#000" filter="url(#M)" xlink:href="#N"/>
      <use fill="#E7E7E7" xlink:href="#N"/>
    </g>
    <g transform="translate(10 6)">
      <use fill="#000" filter="url(#O)" xlink:href="#P"/>
      <use fill="#E7E7E7" xlink:href="#P"/>
    </g>
    <g transform="translate(10 6)">
      <use fill="#000" filter="url(#Q)" xlink:href="#R"/>
      <use fill="#E7E7E7" xlink:href="#R"/>
    </g>
    <g transform="translate(10 6)">
      <use fill="#000" filter="url(#S)" xlink:href="#T"/>
      <use fill="#FF9D3F" xlink:href="#T"/>
    </g>
    <g>
      <g transform="translate(39 21)">
        <mask id="V" fill="#fff">
          <use xlink:href="#U"/>
        </mask>
        <use fill="#E0EAF0" xlink:href="#U"/>
        <path d="M5 14h180v107a4 4 0 0 1-4 4H9a4 4 0 0 1-4-4V14z" fill="#FFF" mask="url(#V)"/>
        <path d="M18.32 26.508l1.23-2.647h2.09l-2.348 4.35V31h-1.943v-2.73L15 23.862h2.1l1.22 2.647zm10.272.913c0 1.201-.295 2.114-.884 2.74-.59.624-1.452.937-2.588.937-1.12 0-1.978-.314-2.576-.943-.597-.628-.896-1.543-.896-2.744 0-1.188.297-2.095.891-2.722.594-.627 1.458-.94 2.59-.94 1.137 0 1.998.31 2.584.933.586.621.879 1.534.879 2.739zm-4.913 0c0 1.38.48 2.07 1.44 2.07.49 0 .851-.167 1.087-.503.236-.335.354-.857.354-1.567 0-.713-.12-1.24-.359-1.58-.239-.34-.596-.51-1.071-.51-.967 0-1.45.697-1.45 2.09zm11.971-3.56v4.297c0 .934-.264 1.658-.793 2.17-.53.513-1.292.77-2.288.77-.973 0-1.721-.25-2.244-.747-.522-.498-.783-1.215-.783-2.149v-4.34h1.938v4.189c0 .504.094.87.283 1.098.19.228.467.342.835.342.394 0 .68-.113.857-.34.178-.225.266-.596.266-1.11v-4.18h1.929zm3.128 4.541V31h-1.929v-7.139h2.339c1.94 0 2.91.703 2.91 2.11 0 .827-.404 1.466-1.21 1.919l2.08 3.11H40.78l-1.514-2.598h-.488zm0-1.45h.361c.674 0 1.01-.298 1.01-.893 0-.492-.33-.738-.99-.738h-.381v1.631zm3.977 2.13v-1.524h2.759v1.523h-2.759zM53.905 31h-2.28l-.684-3.11c-.032-.13-.083-.39-.153-.777-.07-.387-.122-.711-.154-.971-.026.211-.069.474-.127.788-.059.314-.117.603-.174.867-.056.264-.293 1.331-.71 3.203h-2.28l-1.768-7.139h1.86l.777 3.58c.176.79.296 1.42.361 1.89.043-.333.118-.784.227-1.353.11-.57.211-1.042.305-1.416l.63-2.7h1.787l.61 2.7c.105.432.21.932.318 1.499.108.566.18.99.215 1.27.042-.362.158-.989.347-1.88l.79-3.59h1.861L53.905 31zm6.62 0h-4.24v-7.139h4.24v1.548h-2.31v1.123h2.138v1.548h-2.138v1.348h2.31V31zm.95-7.139h2.49c.97 0 1.69.144 2.16.432.47.289.706.737.706 1.346 0 .4-.103.742-.308 1.025a1.372 1.372 0 0 1-.81.547v.049c.442.117.763.312.961.586.199.273.298.628.298 1.064 0 .648-.243 1.158-.73 1.53-.486.374-1.15.56-1.99.56h-2.778v-7.139zm1.928 2.74h.581c.277 0 .49-.057.642-.171.151-.114.227-.284.227-.508 0-.4-.303-.6-.908-.6h-.542V26.6zm0 1.41v1.5h.679c.602 0 .903-.254.903-.762 0-.238-.08-.42-.242-.547-.16-.127-.394-.19-.7-.19h-.64zm9.177.821c0 .443-.112.836-.336 1.18-.225.343-.549.61-.972.8-.423.19-.92.286-1.49.286-.475 0-.873-.034-1.196-.1a4.441 4.441 0 0 1-1.006-.35V28.93c.368.188.75.336 1.148.442.397.105.762.158 1.094.158.286 0 .496-.05.63-.149.133-.099.2-.227.2-.383a.422.422 0 0 0-.08-.256.938.938 0 0 0-.26-.222c-.118-.075-.435-.228-.95-.46-.465-.211-.814-.416-1.047-.615a1.889 1.889 0 0 1-.517-.683 2.269 2.269 0 0 1-.169-.913c0-.658.24-1.17.718-1.538.479-.368 1.136-.552 1.973-.552.739 0 1.492.17 2.26.512l-.59 1.49c-.668-.306-1.244-.46-1.729-.46-.25 0-.433.045-.547.133a.399.399 0 0 0-.17.327c0 .14.072.265.217.376.145.11.538.312 1.179.605.615.277 1.042.574 1.282.891.239.318.358.717.358 1.199zM73.384 31v-7.139h1.938V31h-1.938zm6.33 0h-1.928v-5.562h-1.743v-1.577h5.41v1.577h-1.738V31zm6.698 0h-4.238v-7.139h4.238v1.548h-2.31v1.123h2.139v1.548h-2.139v1.348h2.31V31zm.598-.81c0-.3.09-.531.266-.694.178-.163.436-.244.774-.244.323 0 .57.081.743.244.172.163.258.394.258.693 0 .293-.088.522-.266.686-.177.165-.422.247-.735.247-.322 0-.576-.081-.761-.244-.186-.163-.279-.392-.279-.689zm5.623-4.85a1.23 1.23 0 0 0-1.074.565c-.257.376-.386.894-.386 1.555 0 1.374.523 2.06 1.568 2.06.315 0 .621-.043.918-.131.296-.088.594-.194.893-.318v1.631c-.596.264-1.27.396-2.021.396-1.078 0-1.904-.313-2.478-.938-.575-.625-.862-1.528-.862-2.71 0-.739.139-1.388.417-1.948.279-.56.679-.99 1.201-1.292.523-.3 1.137-.451 1.844-.451.771 0 1.509.167 2.212.503l-.591 1.518a6.643 6.643 0 0 0-.791-.312 2.764 2.764 0 0 0-.85-.127zm9.49 2.08c0 1.202-.294 2.115-.884 2.74-.589.625-1.451.938-2.587.938-1.12 0-1.979-.314-2.576-.943-.597-.628-.896-1.543-.896-2.744 0-1.188.297-2.095.891-2.722.594-.627 1.458-.94 2.59-.94 1.136 0 1.997.31 2.583.933.586.621.88 1.534.88 2.739zm-4.912 0c0 1.381.48 2.071 1.44 2.071.489 0 .851-.167 1.087-.503.236-.335.354-.857.354-1.567 0-.713-.12-1.24-.359-1.58-.24-.34-.596-.51-1.072-.51-.966 0-1.45.697-1.45 2.09zm9.012 3.58l-1.46-5.142h-.044c.068.876.102 1.556.102 2.041V31h-1.709v-7.139h2.569l1.489 5.069h.039l1.46-5.069h2.573V31h-1.772v-3.13c0-.163.002-.343.007-.542.005-.198.027-.685.066-1.46h-.044L108.059 31h-1.836z" fill="#999" mask="url(#V)"/>
        <path fill="#E7E7E7" mask="url(#V)" d="M142 37h36v78h-36zM15 44h120v4H15zM15 51h68v4H15zM15 37h120v4H15z"/>
        <path stroke="#1CAAD9" fill="#E3F8FF" mask="url(#V)" d="M15.5 60.5h119v54h-119z"/>
        <g mask="url(#V)">
          <g transform="translate(63 75)">
            <mask id="X" fill="#fff">
              <use xlink:href="#W"/>
            </mask>
            <path d="M12.263.045C5.49.045 0 5.536 0 12.308c0 6.773 5.49 12.264 12.263 12.264s12.263-5.49 12.263-12.264c0-6.772-5.49-12.263-12.263-12.263" fill="#1CAAD9" mask="url(#X)"/>
          </g>
          <path fill="#FFF" d="M74.54 88.519l-5.508-3.374v6.17l5.508 3.375zM75.263 87.266l6.04-3.7-6.04-3.7-6.041 3.7zM75.986 88.519v6.17l5.508-3.373v-6.171z"/>
        </g>
        <g mask="url(#V)">
          <g transform="translate(5 5)">
            <circle fill="#FF6057" cx="2" cy="2" r="2"/>
            <circle fill="#FFC12E" cx="10" cy="2" r="2"/>
            <circle fill="#28CA40" cx="18" cy="2" r="2"/>
          </g>
        </g>
      </g>
    </g>
  </g>
</svg>
