<svg width="274" height="155" xmlns="http://www.w3.org/2000/svg" xmlns:xlink="http://www.w3.org/1999/xlink">
  <defs>
    <linearGradient x1="0%" y1="66.109%" y2="32.776%" id="a">
      <stop stop-color="#1CAAD9" offset="0%"/>
      <stop stop-color="#49CDF8" offset="100%"/>
    </linearGradient>
    <path id="b" d="M111.107 58.586l-.02 6.972-5.965-3.503.02-6.972z"/>
    <linearGradient x1="0%" y1="100%" x2="99.935%" y2=".055%" id="c">
      <stop stop-color="#1CAAD9" offset="0%"/>
      <stop stop-color="#49CDF8" offset="100%"/>
    </linearGradient>
    <linearGradient x1="0%" y1="50%" y2="50%" id="d">
      <stop stop-color="#1CAAD9" offset="0%"/>
      <stop stop-color="#49CDF8" offset="100%"/>
    </linearGradient>
    <path id="e" d="M105.142 55.083l5.964-3.525 5.964 3.503-5.963 3.525z"/>
    <path d="M31.975 68.487a2.486 2.486 0 1 1-4.975 0 2.487 2.487 0 0 1 4.975 0" id="g"/>
    <filter x="-371.9%" y="-291.5%" width="843.7%" height="843.9%" filterUnits="objectBoundingBox" id="f">
      <feOffset dy="4" in="SourceAlpha" result="shadowOffsetOuter1"/>
      <feGaussianBlur stdDeviation="5.5" in="shadowOffsetOuter1" result="shadowBlurOuter1"/>
      <feColorMatrix values="0 0 0 0 0.790142532 0 0 0 0 0.893348712 0 0 0 0 0.927508503 0 0 0 1 0" in="shadowBlurOuter1"/>
    </filter>
    <path d="M52 8.487a2.486 2.486 0 1 1-4.975 0 2.487 2.487 0 0 1 4.975 0" id="i"/>
    <filter x="-371.9%" y="-291.5%" width="843.7%" height="843.9%" filterUnits="objectBoundingBox" id="h">
      <feOffset dy="4" in="SourceAlpha" result="shadowOffsetOuter1"/>
      <feGaussianBlur stdDeviation="5.5" in="shadowOffsetOuter1" result="shadowBlurOuter1"/>
      <feColorMatrix values="0 0 0 0 0.790142532 0 0 0 0 0.893348712 0 0 0 0 0.927508503 0 0 0 1 0" in="shadowBlurOuter1"/>
    </filter>
    <path d="M203.975 49.487a2.486 2.486 0 1 1-4.975 0 2.487 2.487 0 0 1 4.975 0" id="k"/>
    <filter x="-371.9%" y="-291.5%" width="843.7%" height="843.9%" filterUnits="objectBoundingBox" id="j">
      <feOffset dy="4" in="SourceAlpha" result="shadowOffsetOuter1"/>
      <feGaussianBlur stdDeviation="5.5" in="shadowOffsetOuter1" result="shadowBlurOuter1"/>
      <feColorMatrix values="0 0 0 0 0.790142532 0 0 0 0 0.893348712 0 0 0 0 0.927508503 0 0 0 1 0" in="shadowBlurOuter1"/>
    </filter>
    <path d="M217 7.5a1.5 1.5 0 1 1-2.999 0 1.5 1.5 0 0 1 3 0" id="m"/>
    <filter x="-616.5%" y="-483.3%" width="1333.1%" height="1333.3%" filterUnits="objectBoundingBox" id="l">
      <feOffset dy="4" in="SourceAlpha" result="shadowOffsetOuter1"/>
      <feGaussianBlur stdDeviation="5.5" in="shadowOffsetOuter1" result="shadowBlurOuter1"/>
      <feColorMatrix values="0 0 0 0 0.790142532 0 0 0 0 0.893348712 0 0 0 0 0.927508503 0 0 0 1 0" in="shadowBlurOuter1"/>
    </filter>
    <path d="M170 10.5a1.5 1.5 0 1 1-2.999 0 1.5 1.5 0 0 1 3 0" id="o"/>
    <filter x="-616.5%" y="-483.3%" width="1333.1%" height="1333.3%" filterUnits="objectBoundingBox" id="n">
      <feOffset dy="4" in="SourceAlpha" result="shadowOffsetOuter1"/>
      <feGaussianBlur stdDeviation="5.5" in="shadowOffsetOuter1" result="shadowBlurOuter1"/>
      <feColorMatrix values="0 0 0 0 0.790142532 0 0 0 0 0.893348712 0 0 0 0 0.927508503 0 0 0 1 0" in="shadowBlurOuter1"/>
    </filter>
    <path d="M194.487 26.974a2.486 2.486 0 1 1-.001-4.973 2.486 2.486 0 0 1 .001 4.973z" id="q"/>
    <filter x="-371.9%" y="-291.5%" width="843.9%" height="843.9%" filterUnits="objectBoundingBox" id="p">
      <feOffset dy="4" in="SourceAlpha" result="shadowOffsetOuter1"/>
      <feGaussianBlur stdDeviation="5.5" in="shadowOffsetOuter1" result="shadowBlurOuter1"/>
      <feColorMatrix values="0 0 0 0 0.790142532 0 0 0 0 0.893348712 0 0 0 0 0.927508503 0 0 0 1 0" in="shadowBlurOuter1"/>
    </filter>
    <path d="M92.5 7a1.5 1.5 0 1 1 0-3 1.5 1.5 0 0 1 0 3z" id="s"/>
    <filter x="-616.7%" y="-483.3%" width="1333.3%" height="1333.3%" filterUnits="objectBoundingBox" id="r">
      <feOffset dy="4" in="SourceAlpha" result="shadowOffsetOuter1"/>
      <feGaussianBlur stdDeviation="5.5" in="shadowOffsetOuter1" result="shadowBlurOuter1"/>
      <feColorMatrix values="0 0 0 0 0.790142532 0 0 0 0 0.893348712 0 0 0 0 0.927508503 0 0 0 1 0" in="shadowBlurOuter1"/>
    </filter>
    <path d="M127.324 14.162a2.162 2.162 0 1 1-4.324 0 2.162 2.162 0 0 1 4.324 0" id="u"/>
    <filter x="-427.8%" y="-335.3%" width="955.7%" height="955.7%" filterUnits="objectBoundingBox" id="t">
      <feOffset dy="4" in="SourceAlpha" result="shadowOffsetOuter1"/>
      <feGaussianBlur stdDeviation="5.5" in="shadowOffsetOuter1" result="shadowBlurOuter1"/>
      <feColorMatrix values="0 0 0 0 0.790142532 0 0 0 0 0.893348712 0 0 0 0 0.927508503 0 0 0 1 0" in="shadowBlurOuter1"/>
    </filter>
    <path d="M72.324 25.162a2.162 2.162 0 1 1-4.324 0 2.162 2.162 0 0 1 4.324 0" id="w"/>
    <filter x="-427.8%" y="-335.3%" width="955.7%" height="955.7%" filterUnits="objectBoundingBox" id="v">
      <feOffset dy="4" in="SourceAlpha" result="shadowOffsetOuter1"/>
      <feGaussianBlur stdDeviation="5.5" in="shadowOffsetOuter1" result="shadowBlurOuter1"/>
      <feColorMatrix values="0 0 0 0 0.790142532 0 0 0 0 0.893348712 0 0 0 0 0.927508503 0 0 0 1 0" in="shadowBlurOuter1"/>
    </filter>
    <path d="M252.324 2.162a2.162 2.162 0 1 1-4.324 0 2.162 2.162 0 0 1 4.324 0" id="y"/>
    <filter x="-427.8%" y="-335.3%" width="955.7%" height="955.7%" filterUnits="objectBoundingBox" id="x">
      <feOffset dy="4" in="SourceAlpha" result="shadowOffsetOuter1"/>
      <feGaussianBlur stdDeviation="5.5" in="shadowOffsetOuter1" result="shadowBlurOuter1"/>
      <feColorMatrix values="0 0 0 0 0.790142532 0 0 0 0 0.893348712 0 0 0 0 0.927508503 0 0 0 1 0" in="shadowBlurOuter1"/>
    </filter>
    <path d="M35 97.5a1.5 1.5 0 1 1-3 0 1.5 1.5 0 0 1 3 0" id="A"/>
    <filter x="-616.7%" y="-483.3%" width="1333.3%" height="1333.3%" filterUnits="objectBoundingBox" id="z">
      <feOffset dy="4" in="SourceAlpha" result="shadowOffsetOuter1"/>
      <feGaussianBlur stdDeviation="5.5" in="shadowOffsetOuter1" result="shadowBlurOuter1"/>
      <feColorMatrix values="0 0 0 0 0.790142532 0 0 0 0 0.893348712 0 0 0 0 0.927508503 0 0 0 1 0" in="shadowBlurOuter1"/>
    </filter>
    <path d="M18 87.5a1.5 1.5 0 1 1-3 .001 1.5 1.5 0 0 1 3 0" id="C"/>
    <filter x="-616.7%" y="-483.2%" width="1333.3%" height="1332.9%" filterUnits="objectBoundingBox" id="B">
      <feOffset dy="4" in="SourceAlpha" result="shadowOffsetOuter1"/>
      <feGaussianBlur stdDeviation="5.5" in="shadowOffsetOuter1" result="shadowBlurOuter1"/>
      <feColorMatrix values="0 0 0 0 0.790142532 0 0 0 0 0.893348712 0 0 0 0 0.927508503 0 0 0 1 0" in="shadowBlurOuter1"/>
    </filter>
    <path d="M22.532 29.767a2.766 2.766 0 1 1-5.533.001 2.766 2.766 0 0 1 5.533-.001" id="E"/>
    <filter x="-334.4%" y="-262%" width="768.8%" height="768.6%" filterUnits="objectBoundingBox" id="D">
      <feOffset dy="4" in="SourceAlpha" result="shadowOffsetOuter1"/>
      <feGaussianBlur stdDeviation="5.5" in="shadowOffsetOuter1" result="shadowBlurOuter1"/>
      <feColorMatrix values="0 0 0 0 0.790142532 0 0 0 0 0.893348712 0 0 0 0 0.927508503 0 0 0 1 0" in="shadowBlurOuter1"/>
    </filter>
    <path d="M218.532 68.767a2.766 2.766 0 1 1-5.533.001 2.766 2.766 0 0 1 5.533-.001" id="G"/>
    <filter x="-334.4%" y="-262%" width="768.8%" height="768.6%" filterUnits="objectBoundingBox" id="F">
      <feOffset dy="4" in="SourceAlpha" result="shadowOffsetOuter1"/>
      <feGaussianBlur stdDeviation="5.5" in="shadowOffsetOuter1" result="shadowBlurOuter1"/>
      <feColorMatrix values="0 0 0 0 0.790142532 0 0 0 0 0.893348712 0 0 0 0 0.927508503 0 0 0 1 0" in="shadowBlurOuter1"/>
    </filter>
    <path d="M236 16a1 1 0 1 1-2 0 1 1 0 0 1 2 0" id="I"/>
    <filter x="-925%" y="-724.7%" width="1950%" height="1949.3%" filterUnits="objectBoundingBox" id="H">
      <feOffset dy="4" in="SourceAlpha" result="shadowOffsetOuter1"/>
      <feGaussianBlur stdDeviation="5.5" in="shadowOffsetOuter1" result="shadowBlurOuter1"/>
      <feColorMatrix values="0 0 0 0 0.790142532 0 0 0 0 0.893348712 0 0 0 0 0.927508503 0 0 0 1 0" in="shadowBlurOuter1"/>
    </filter>
    <path d="M235.458 35.729a3.729 3.729 0 1 1-7.458 0 3.729 3.729 0 0 1 7.458 0" id="K"/>
    <filter x="-248.1%" y="-194.4%" width="596.1%" height="596.1%" filterUnits="objectBoundingBox" id="J">
      <feOffset dy="4" in="SourceAlpha" result="shadowOffsetOuter1"/>
      <feGaussianBlur stdDeviation="5.5" in="shadowOffsetOuter1" result="shadowBlurOuter1"/>
      <feColorMatrix values="0 0 0 0 0.790142532 0 0 0 0 0.893348712 0 0 0 0 0.927508503 0 0 0 1 0" in="shadowBlurOuter1"/>
    </filter>
    <path d="M7.458 6.729a3.729 3.729 0 1 1-7.458 0 3.729 3.729 0 0 1 7.458 0" id="M"/>
    <filter x="-248.1%" y="-194.4%" width="596.1%" height="596.1%" filterUnits="objectBoundingBox" id="L">
      <feOffset dy="4" in="SourceAlpha" result="shadowOffsetOuter1"/>
      <feGaussianBlur stdDeviation="5.5" in="shadowOffsetOuter1" result="shadowBlurOuter1"/>
      <feColorMatrix values="0 0 0 0 0.790142532 0 0 0 0 0.893348712 0 0 0 0 0.927508503 0 0 0 1 0" in="shadowBlurOuter1"/>
    </filter>
  </defs>
  <g fill="none" fill-rule="evenodd">
    <path d="M1 5h265v150H1z"/>
    <path d="M209.042 119H259v26.032c0 5.471-4.505 9.968-10.042 9.968H199c5.512 0 10.042-4.472 10.042-9.968V119zM14 119h69v26.032c0 5.471-4.52 9.968-10.074 9.968H24.074C18.544 155 14 150.528 14 145.032V119z" fill="#E3F8FF"/>
    <path d="M5.025 119H70v26.032c0 5.471-4.536 9.968-10.111 9.968H15.11C9.561 155 5 150.528 5 145.032V119h.025z" fill="#E3F8FF"/>
    <path d="M58.562 112h197.876c3.07 0 5.562 2.419 5.562 5.4v3.2c0 2.98-2.491 5.4-5.562 5.4H58.562c-3.07 0-5.562-2.42-5.562-5.4v-3.2c0-2.957 2.491-5.4 5.562-5.4" fill="#1CAAD9"/>
    <path d="M84.895 112c3.067 0 5.556 2.419 5.556 5.4v3.2c0 2.98-2.49 5.4-5.556 5.4H10.556C7.49 126 5 123.58 5 120.6v-3.2c0-2.957 2.514-5.4 5.556-5.4h74.339z" fill="#1C88BB"/>
    <path fill="#E0EAF0" d="M87 110h25V98H87z"/>
    <path d="M56.934 38h86.132c2.158 0 3.934 1.769 3.934 3.916v54.168c0 2.147-1.776 3.916-3.934 3.916H56.934C54.776 100 53 98.231 53 96.084V41.916A3.928 3.928 0 0 1 56.934 38" fill="#BCCED8"/>
    <path fill="#3E424D" d="M56 97h88V40H56z"/>
    <path fill="#5A6173" d="M62 91h68V50H62z"/>
    <g transform="translate(5 12)">
      <use fill="url(#a)" xlink:href="#b"/>
      <use fill-opacity=".28" fill="#000" style="mix-blend-mode:luminosity" xlink:href="#b"/>
    </g>
    <path fill="url(#c)" d="M111.107 58.586l5.963-3.525-.02 6.972-5.963 3.525z" transform="translate(5 12)"/>
    <g transform="translate(5 12)">
      <use fill="url(#d)" xlink:href="#e"/>
      <use fill-opacity=".09" fill="#000" style="mix-blend-mode:luminosity" xlink:href="#e"/>
    </g>
    <path fill="#474B57" d="M56 97h88v-4H56z"/>
    <path d="M58.27 94h1.46c.145 0 .27.12.27.26v1.48a.27.27 0 0 1-.27.26h-1.46a.27.27 0 0 1-.27-.26v-1.48c.02-.14.125-.26.27-.26" fill="#FFF"/>
    <path d="M64 94a1 1 0 1 1 0 2 1 1 0 0 1 0-2" fill="#5A6173"/>
    <path d="M67 94a1 1 0 1 1 0 2 1 1 0 0 1 0-2" fill="#363840"/>
    <path d="M138.372 95h2.256c.198 0 .372.143.372.306v.388c0 .163-.174.306-.372.306h-2.256c-.199 0-.372-.143-.372-.306v-.408c.025-.163.173-.286.372-.286M140.5 43a.5.5 0 1 1 0 1 .5.5 0 0 1 0-1" fill="#FFF"/>
    <path d="M138.5 43a.5.5 0 1 1 0 1 .5.5 0 0 1 0-1" fill="#E45449"/>
    <path d="M136.5 43a.5.5 0 1 1 0 1 .5.5 0 0 1 0-1" fill="#9FF"/>
    <path fill="#363840" d="M132 58h10v-7h-10z"/>
    <path d="M62 49.15c0-.075.25-.15.5-.15s.5.075.5.15V89.85c0 .076-.25.151-.5.151s-.5-.075-.5-.151V49.15zM66 49.15c0-.075.25-.15.5-.15s.5.075.5.15V89.85c0 .076-.25.151-.5.151s-.5-.075-.5-.151V49.15zM71 49.15c0-.075.25-.15.5-.15s.5.075.5.15V89.85c0 .076-.25.151-.5.151s-.5-.075-.5-.151V49.15zM75 49.15c0-.075.25-.15.5-.15s.5.075.5.15V89.85c0 .076-.25.151-.5.151s-.5-.075-.5-.151V49.15zM80 49.15c0-.075.25-.15.5-.15s.5.075.5.15V89.85c0 .076-.25.151-.5.151s-.5-.075-.5-.151V49.15zM85 49.15c0-.075.25-.15.5-.15s.5.075.5.15V89.85c0 .076-.25.151-.5.151s-.5-.075-.5-.151V49.15zM89 49.15c0-.075.25-.15.5-.15s.5.075.5.15V89.85c0 .076-.25.151-.5.151s-.5-.075-.5-.151V49.15zM94 49.15c0-.075.25-.15.5-.15s.5.075.5.15V89.85c0 .076-.25.151-.5.151s-.5-.075-.5-.151V49.15zM98 49.15c0-.075.25-.15.5-.15s.5.075.5.15V89.85c0 .076-.25.151-.5.151s-.5-.075-.5-.151V49.15zM103 49.15c0-.075.25-.15.5-.15s.5.075.5.15V89.85c0 .076-.25.151-.5.151s-.5-.075-.5-.151V49.15z" fill="#3E424D"/>
    <path d="M102.85 49c.075 0 .15.25.15.5s-.075.5-.15.5h-40.7c-.075 0-.15-.25-.15-.5s.075-.5.15-.5h40.7z" fill="#3E424D"/>
    <path d="M102.85 54c.075 0 .15.25.15.5s-.075.5-.15.5h-40.7c-.075 0-.15-.25-.15-.5s.075-.5.15-.5h40.7z" fill="#E45449"/>
    <path d="M102.85 58c.075 0 .15.25.15.5s-.075.5-.15.5h-40.7c-.075 0-.15-.25-.15-.5s.075-.5.15-.5h40.7zM102.85 63c.075 0 .15.25.15.5s-.075.5-.15.5h-40.7c-.075 0-.15-.25-.15-.5s.075-.5.15-.5h40.7zM102.85 68c.075 0 .15.25.15.5s-.075.5-.15.5h-40.7c-.075 0-.15-.25-.15-.5s.075-.5.15-.5h40.7z" fill="#3E424D"/>
    <path d="M102.85 72c.075 0 .15.25.15.5s-.075.5-.15.5h-40.7c-.075 0-.15-.25-.15-.5s.075-.5.15-.5h40.7z" fill="#E45449"/>
    <path d="M102.85 77c.075 0 .15.25.15.5s-.075.5-.15.5h-40.7c-.075 0-.15-.25-.15-.5s.075-.5.15-.5h40.7zM102.85 81c.075 0 .15.25.15.5s-.075.5-.15.5h-40.7c-.075 0-.15-.25-.15-.5s.075-.5.15-.5h40.7zM102.85 86c.075 0 .15.25.15.5s-.075.5-.15.5h-40.7c-.075 0-.15-.25-.15-.5s.075-.5.15-.5h40.7zM102.85 90c.075 0 .15.25.15.5s-.075.5-.15.5h-40.7c-.075 0-.15-.25-.15-.5s.075-.5.15-.5h40.7z" fill="#3E424D"/>
    <g stroke="#9FF">
      <path d="M80.728 73.564c0-.37-.293-.89-.61-1.085l-8.47-5.188c-.136-.083-.089-.11-.089.045v9.41c0 .37.293.89.61 1.085l8.47 5.188c.136.083.089.11.089-.044v-9.41zM81.967 69.31c.312.192.878.192 1.19 0l9.44-5.782c.154-.094.154-.102 0-.196l-9.44-5.783c-.312-.191-.878-.191-1.19 0l-9.44 5.783c-.154.094-.154.102 0 .196l9.44 5.782zM85.007 72.48c-.32.195-.61.713-.61 1.084v9.41c0 .155-.049.129.09.044l8.466-5.186c.321-.197.612-.715.612-1.086v-9.41c0-.152.046-.127-.088-.045l-8.47 5.188z"/>
    </g>
    <path d="M59.514 42h1.972c.298 0 .514.237.514.5 0 .29-.243.5-.514.5h-1.972a.506.506 0 0 1-.514-.5c0-.263.243-.5.514-.5M63.514 42h1.972c.298 0 .514.237.514.5 0 .29-.243.5-.514.5h-1.972a.506.506 0 0 1-.514-.5c0-.263.216-.5.514-.5M67.514 42h1.972c.298 0 .514.237.514.5 0 .29-.243.5-.514.5h-1.972a.506.506 0 0 1-.514-.5c0-.263.216-.5.514-.5M71.514 42h1.972c.298 0 .514.237.514.5 0 .29-.243.5-.514.5h-1.972a.506.506 0 0 1-.514-.5c0-.263.243-.5.514-.5M75.515 42h1.972c.297 0 .513.237.513.5 0 .29-.243.5-.513.5h-1.972a.506.506 0 0 1-.513-.5c-.027-.263.216-.5.513-.5" fill="#5A6173"/>
    <path d="M59.39 46h1.22c.208 0 .39.192.39.411v1.178c0 .22-.182.411-.39.411h-1.22c-.208 0-.39-.192-.39-.411v-1.178c0-.22.156-.411.39-.411M62.39 46h1.22c.208 0 .39.192.39.411v1.178c0 .22-.182.411-.39.411h-1.22c-.208 0-.39-.192-.39-.411v-1.178c0-.22.182-.411.39-.411M65.39 46h1.22c.208 0 .39.192.39.411v1.178c0 .22-.182.411-.39.411h-1.22c-.208 0-.39-.192-.39-.411v-1.178c0-.22.182-.411.39-.411M68.39 46h1.22c.208 0 .39.192.39.411v1.178c0 .22-.182.411-.39.411h-1.22c-.208 0-.39-.192-.39-.411v-1.178c0-.22.182-.411.39-.411M71.38 46h5.24c.203 0 .38.192.38.411v1.178c0 .22-.177.411-.38.411h-5.24c-.203 0-.38-.192-.38-.411v-1.178c0-.22.177-.411.38-.411M80.39 46h1.22c.208 0 .39.192.39.411v1.178c0 .22-.182.411-.39.411h-1.22c-.208 0-.39-.192-.39-.411v-1.178c0-.22.182-.411.39-.411M83.39 46h1.22c.208 0 .39.192.39.411v1.178c0 .22-.182.411-.39.411h-1.22c-.208 0-.39-.192-.39-.411v-1.178c0-.22.182-.411.39-.411M86.38 46h5.24c.203 0 .38.192.38.411v1.178c0 .22-.177.411-.38.411h-5.24c-.203 0-.38-.192-.38-.411v-1.178c0-.22.177-.411.38-.411" fill="#363840"/>
    <path d="M59.625 51h.75c.344 0 .625.22.625.488v.024c0 .268-.281.488-.625.488h-.75c-.344 0-.625-.22-.625-.488v-.024c0-.244.281-.488.625-.488M59.625 53h.75c.344 0 .625.22.625.488v.024c0 .268-.281.488-.625.488h-.75c-.344 0-.625-.22-.625-.488v-.024c0-.268.281-.488.625-.488M59.625 55h.75c.344 0 .625.22.625.488v.024c0 .268-.281.488-.625.488h-.75c-.344 0-.625-.22-.625-.488v-.024c0-.268.281-.488.625-.488" fill="#FFF"/>
    <path d="M59.625 58h.75c.344 0 .625.22.625.488v.024c0 .268-.281.488-.625.488h-.75c-.344 0-.625-.22-.625-.488v-.024c0-.268.281-.488.625-.488M59.625 60h.75c.344 0 .625.22.625.488v.024c0 .268-.281.488-.625.488h-.75c-.344 0-.625-.22-.625-.488v-.024c0-.268.281-.488.625-.488M132.44 59h3.12c.255 0 .44.273.44.576v.848c0 .334-.208.576-.44.576h-3.12c-.255 0-.44-.273-.44-.576v-.848c0-.303.208-.576.44-.576M132.44 61h3.12c.255 0 .44.273.44.576v.848c0 .334-.208.576-.44.576h-3.12c-.255 0-.44-.273-.44-.576v-.848c0-.303.208-.576.44-.576M132.44 64h3.12c.255 0 .44.273.44.576v.848c0 .334-.208.576-.44.576h-3.12c-.255 0-.44-.273-.44-.576v-.848c0-.303.208-.576.44-.576M132.44 67h3.12c.255 0 .44.273.44.576v.848c0 .334-.208.576-.44.576h-3.12c-.255 0-.44-.273-.44-.576v-.848c0-.303.208-.576.44-.576M137.462 59h3.098c.255 0 .44.273.44.576v.848c0 .334-.208.576-.44.576h-3.12c-.255 0-.44-.273-.44-.576v-.848c0-.303.208-.576.462-.576M137.462 61h3.098c.255 0 .44.273.44.576v.848c0 .334-.208.576-.44.576h-3.12c-.255 0-.44-.273-.44-.576v-.848c0-.303.208-.576.462-.576M137.462 64h3.098c.255 0 .44.273.44.576v.848c0 .334-.208.576-.44.576h-3.12c-.255 0-.44-.273-.44-.576v-.848c0-.303.208-.576.462-.576M137.462 67h3.098c.255 0 .44.273.44.576v.848c0 .334-.208.576-.44.576h-3.12c-.255 0-.44-.273-.44-.576v-.848c0-.303.208-.576.462-.576M132.622 71h8.756c.337 0 .622.193.622.421v.158c0 .228-.285.421-.622.421h-8.756c-.337 0-.622-.193-.622-.421v-.158c0-.228.285-.421.622-.421M132.622 73h8.756c.337 0 .622.193.622.421v.158c0 .228-.285.421-.622.421h-8.756c-.337 0-.622-.193-.622-.421v-.158c0-.228.285-.421.622-.421" fill="#5A6173"/>
    <path d="M76.222 109h45.556c.673 0 1.222.52 1.222 1.157v.686c0 .637-.549 1.157-1.222 1.157H76.222c-.673 0-1.222-.52-1.222-1.157v-.686c0-.637.549-1.157 1.222-1.157" fill="#E0EAF0"/>
    <path d="M241.5 140c1.936 0 3.5-1.564 3.5-3.5s-1.564-3.5-3.5-3.5a3.496 3.496 0 0 0-3.5 3.5c-.024 1.936 1.564 3.5 3.5 3.5" fill="#1CAAD9"/>
    <path d="M20.111 55h1.778c.617 0 1.111.593 1.111 1.333v1.334c0 .74-.494 1.333-1.111 1.333H20.11C19.494 59 19 58.407 19 57.667v-1.334c0-.74.494-1.333 1.111-1.333" fill="#E6E6E6"/>
    <path d="M239.106 95.665v10.124h2.073c.2 0 .374-.075.499-.2a.695.695 0 0 0 .2-.498v-8.703c0-.199-.075-.374-.2-.498a.697.697 0 0 0-.5-.2h-2.072v-.025zM226.022 92h11.061c.95 0 1.773.673 1.973 1.571h2.123c.773 0 1.472.324 1.997.823.5.498.824 1.221.824 1.994v8.703c0 .773-.325 1.47-.824 1.994-.5.499-1.224.823-1.997.823h-2.073v1.072c0 1.097-.899 2.02-2.023 2.02h-11.06a2.028 2.028 0 0 1-2.023-2.02V94.02c0-1.122.899-2.02 2.022-2.02z" fill="#1C88BB"/>
    <path d="M174.867 132h48.267c3.775 0 6.866 3.151 6.866 7s-3.091 7-6.866 7h-48.267c-3.776 0-6.867-3.151-6.867-7s3.091-7 6.867-7" fill="#BCCED8"/>
    <path d="M174.87 132h17.261c3.777 0 6.869 3.151 6.869 7s-3.092 7-6.869 7H174.87c-3.776 0-6.869-3.151-6.869-7s3.093-7 6.87-7" fill="#585B63"/>
    <path fill="#585B63" d="M180 138h12.363L198 155h-12.363z"/>
    <path fill="#BCCED8" d="M217 138h-12.363L199 155h12.338z"/>
    <path d="M181.5 55c-5.77 0-10.5 4.556-10.5 10.114v15.772C171 86.444 175.73 91 181.5 91S192 86.444 192 80.886V65.139C192 59.556 187.27 55 181.5 55" fill="#F69572"/>
    <path d="M173.495 31h1.036C184.138 31 192 38.767 192 48.256v11.488C192 69.234 184.138 77 174.531 77h-5.966C161.663 77 156 71.431 156 64.588V48.256c.025-9.49 7.888-17.256 17.495-17.256" fill="#F69572"/>
    <path d="M156 65.93V49.314c0-7.369 4.577-13.696 11-16.313 6.423 2.592 11 8.944 11 16.313V61c0 8.131-5.614 15.042-13.124 16.999-5.133-1.6-8.876-6.403-8.876-12.07z" fill="#FFA483"/>
    <path d="M163.49 29h18.02c5.768 0 10.49 4.726 10.49 10.5S187.278 50 181.51 50h-18.02C157.722 50 153 45.274 153 39.5S157.722 29 163.49 29" fill="#363840"/>
    <path d="M170.5 37c5.223 0 9.5 4.394 9.5 9.76v1.48c0 5.366-4.277 9.76-9.5 9.76s-9.5-4.394-9.5-9.76v-1.48c0-5.366 4.277-9.76 9.5-9.76" fill="#363840"/>
    <path d="M199 46.392v10.216C199 62.322 194.274 67 188.5 67S178 62.322 178 56.608V46.392C178 40.678 182.726 36 188.5 36S199 40.678 199 46.392" fill="#363840"/>
    <path d="M177 65c3.837 0 7-3.137 7-7 0-3.837-3.137-7-7-7-3.837 0-7 3.137-7 7 .026 3.863 3.163 7 7 7" fill="#FFA483"/>
    <path d="M159.025 126H204V92.725C204 86.292 198.715 81 192.235 81H175.44C166.394 81 159 88.369 159 97.384V126h.025z" fill="#1C88BB"/>
    <path d="M110.391 100.404l.025-.025.025-.024.025-.025c.273-.172.571-.271.87-.32H111.485c.199-.025.422 0 .621.049h.125c.074.025.124.05.198.074l6.14 2.292c1.143.419 1.714 1.675 1.292 2.784a2.186 2.186 0 0 1-2.809 1.282l-5.045-1.873-2.461 1.922c-.945.74-2.336.567-3.082-.37-.746-.936-.572-2.316.373-3.055l3.405-2.637c.1-.025.124-.05.15-.074" fill="#FFA483"/>
    <path d="M107.316 106.443l.025-.025.025-.025a2.37 2.37 0 0 1 1.02-.393H108.534c.173 0 .347 0 .497.049h.099c.1.025.199.05.298.099l6.14 2.286c1.143.418 1.714 1.672 1.292 2.779a2.188 2.188 0 0 1-2.809 1.279l-5.045-1.869-2.461 1.918c-.945.738-2.336.566-3.082-.369-.746-.934-.572-2.312.373-3.05l3.48-2.68zM128.8 122.264c-4.604-1.72-6.957-6.857-5.236-11.463 1.72-4.605 6.856-6.958 11.461-5.237l27.174 10.172c4.605 1.72 6.958 6.857 5.237 11.463-1.72 4.605-6.856 6.958-11.461 5.237L128.8 122.264z" fill="#FFA483"/>
    <path d="M127.515 102.187c4.41.541 7.612 4.116 7.144 7.93-.47 3.83-4.461 6.504-8.85 5.965l-9.812-1.204c-4.41-.542-7.612-4.117-7.144-7.93.468-3.813 4.461-6.505 8.85-5.966l9.812 1.205zM157.844 96.343c1.395-4.718 6.3-7.382 10.93-5.96 4.631 1.42 7.245 6.417 5.85 11.135l-7.468 25.139c-1.394 4.718-6.3 7.382-10.93 5.961-4.631-1.42-7.245-6.418-5.85-11.136l7.468-25.139z" fill="#FFA483"/>
    <path d="M160.697 87.305c1.407-4.69 6.353-7.337 11.024-5.925 4.67 1.412 7.307 6.38 5.9 11.069l-4.293 14.246c-1.406 4.69-6.353 7.337-11.049 5.925-4.67-1.411-7.307-6.379-5.9-11.069l4.318-14.246z" fill="#1C88BB"/>
    <path d="M155 155h50.222l14.024-40.438c3.34-13.766-7.479-25.054-21.283-25.054-13.804 0-25.105 11.288-28.939 25.054L155 155z" fill="#E0EAF0"/>
    <path d="M175.134 132c3.775 0 6.866 3.151 6.866 7s-3.091 7-6.866 7H146.67c-3.775 0-6.866-3.151-6.866-7-.026-3.849 3.065-7 6.866-7h28.464z" fill="#BCCED8"/>
    <path fill="#BCCED8" d="M168 138h-12.363L150 155h12.363z"/>
    <g>
      <g transform="translate(11 6)">
        <use fill="#000" filter="url(#f)" xlink:href="#g"/>
        <use fill="#FF9D3F" xlink:href="#g"/>
      </g>
      <g transform="translate(11 6)">
        <use fill="#000" filter="url(#h)" xlink:href="#i"/>
        <use fill="#FF9D3F" xlink:href="#i"/>
      </g>
      <g transform="translate(11 6)">
        <use fill="#000" filter="url(#j)" xlink:href="#k"/>
        <use fill="#FF9D3F" xlink:href="#k"/>
      </g>
      <g transform="translate(11 6)">
        <use fill="#000" filter="url(#l)" xlink:href="#m"/>
        <use fill="#FF9D3F" xlink:href="#m"/>
      </g>
      <g transform="translate(11 6)">
        <use fill="#000" filter="url(#n)" xlink:href="#o"/>
        <use fill="#FF9D3F" xlink:href="#o"/>
      </g>
      <g transform="translate(11 6)">
        <use fill="#000" filter="url(#p)" xlink:href="#q"/>
        <use fill="#E7E7E7" xlink:href="#q"/>
      </g>
      <g transform="translate(11 6)">
        <use fill="#000" filter="url(#r)" xlink:href="#s"/>
        <use fill="#E7E7E7" xlink:href="#s"/>
      </g>
      <g transform="translate(11 6)">
        <use fill="#000" filter="url(#t)" xlink:href="#u"/>
        <use fill="#1CAAD9" xlink:href="#u"/>
      </g>
      <g transform="translate(11 6)">
        <use fill="#000" filter="url(#v)" xlink:href="#w"/>
        <use fill="#1CAAD9" xlink:href="#w"/>
      </g>
      <g transform="translate(11 6)">
        <use fill="#000" filter="url(#x)" xlink:href="#y"/>
        <use fill="#1CAAD9" xlink:href="#y"/>
      </g>
      <g transform="translate(11 6)">
        <use fill="#000" filter="url(#z)" xlink:href="#A"/>
        <use fill="#1CAAD9" xlink:href="#A"/>
      </g>
      <g transform="translate(11 6)">
        <use fill="#000" filter="url(#B)" xlink:href="#C"/>
        <use fill="#E7E7E7" xlink:href="#C"/>
      </g>
      <g transform="translate(11 6)">
        <use fill="#000" filter="url(#D)" xlink:href="#E"/>
        <use fill="#E7E7E7" xlink:href="#E"/>
      </g>
      <g transform="translate(11 6)">
        <use fill="#000" filter="url(#F)" xlink:href="#G"/>
        <use fill="#E7E7E7" xlink:href="#G"/>
      </g>
      <g transform="translate(11 6)">
        <use fill="#000" filter="url(#H)" xlink:href="#I"/>
        <use fill="#E7E7E7" xlink:href="#I"/>
      </g>
      <g transform="translate(11 6)">
        <use fill="#000" filter="url(#J)" xlink:href="#K"/>
        <use fill="#1CAAD9" xlink:href="#K"/>
      </g>
      <g transform="translate(11 6)">
        <use fill="#000" filter="url(#L)" xlink:href="#M"/>
        <use fill="#1CAAD9" xlink:href="#M"/>
      </g>
    </g>
  </g>
</svg>
