<svg width="282" height="155" xmlns="http://www.w3.org/2000/svg" xmlns:xlink="http://www.w3.org/1999/xlink"><defs><path d="M39.975 81.487a2.486 2.486 0 1 1-4.975 0 2.487 2.487 0 0 1 4.975 0" id="b"/><filter x="-371.9%" y="-291.5%" width="843.7%" height="843.9%" filterUnits="objectBoundingBox" id="a"><feOffset dy="4" in="SourceAlpha" result="shadowOffsetOuter1"/><feGaussianBlur stdDeviation="5.5" in="shadowOffsetOuter1" result="shadowBlurOuter1"/><feColorMatrix values="0 0 0 0 0.790142532 0 0 0 0 0.893348712 0 0 0 0 0.927508503 0 0 0 1 0" in="shadowBlurOuter1"/></filter><path d="M48.975 8.487a2.486 2.486 0 1 1-4.975 0 2.487 2.487 0 0 1 4.975 0" id="d"/><filter x="-371.9%" y="-291.5%" width="843.7%" height="843.9%" filterUnits="objectBoundingBox" id="c"><feOffset dy="4" in="SourceAlpha" result="shadowOffsetOuter1"/><feGaussianBlur stdDeviation="5.5" in="shadowOffsetOuter1" result="shadowBlurOuter1"/><feColorMatrix values="0 0 0 0 0.790142532 0 0 0 0 0.893348712 0 0 0 0 0.927508503 0 0 0 1 0" in="shadowBlurOuter1"/></filter><path d="M15.975 40.487a2.486 2.486 0 1 1-4.975 0 2.487 2.487 0 0 1 4.975 0" id="f"/><filter x="-371.9%" y="-291.5%" width="843.7%" height="843.9%" filterUnits="objectBoundingBox" id="e"><feOffset dy="4" in="SourceAlpha" result="shadowOffsetOuter1"/><feGaussianBlur stdDeviation="5.5" in="shadowOffsetOuter1" result="shadowBlurOuter1"/><feColorMatrix values="0 0 0 0 0.790142532 0 0 0 0 0.893348712 0 0 0 0 0.927508503 0 0 0 1 0" in="shadowBlurOuter1"/></filter><path d="M216 3.5a1.5 1.5 0 1 1-2.999 0 1.5 1.5 0 0 1 3 0" id="h"/><filter x="-616.5%" y="-483.3%" width="1333.1%" height="1333.3%" filterUnits="objectBoundingBox" id="g"><feOffset dy="4" in="SourceAlpha" result="shadowOffsetOuter1"/><feGaussianBlur stdDeviation="5.5" in="shadowOffsetOuter1" result="shadowBlurOuter1"/><feColorMatrix values="0 0 0 0 0.790142532 0 0 0 0 0.893348712 0 0 0 0 0.927508503 0 0 0 1 0" in="shadowBlurOuter1"/></filter><path d="M253 13.5a1.5 1.5 0 1 1-2.999 0 1.5 1.5 0 0 1 3 0" id="j"/><filter x="-616.5%" y="-483.3%" width="1333.1%" height="1333.3%" filterUnits="objectBoundingBox" id="i"><feOffset dy="4" in="SourceAlpha" result="shadowOffsetOuter1"/><feGaussianBlur stdDeviation="5.5" in="shadowOffsetOuter1" result="shadowBlurOuter1"/><feColorMatrix values="0 0 0 0 0.790142532 0 0 0 0 0.893348712 0 0 0 0 0.927508503 0 0 0 1 0" in="shadowBlurOuter1"/></filter><path d="M241 108.5a1.5 1.5 0 1 1-2.999 0 1.5 1.5 0 0 1 3 0" id="l"/><filter x="-616.5%" y="-483.3%" width="1333.1%" height="1333.3%" filterUnits="objectBoundingBox" id="k"><feOffset dy="4" in="SourceAlpha" result="shadowOffsetOuter1"/><feGaussianBlur stdDeviation="5.5" in="shadowOffsetOuter1" result="shadowBlurOuter1"/><feColorMatrix values="0 0 0 0 0.790142532 0 0 0 0 0.893348712 0 0 0 0 0.927508503 0 0 0 1 0" in="shadowBlurOuter1"/></filter><path d="M105 5.5a1.5 1.5 0 1 1-2.999 0 1.5 1.5 0 0 1 3 0" id="n"/><filter x="-616.5%" y="-483.3%" width="1333.1%" height="1333.3%" filterUnits="objectBoundingBox" id="m"><feOffset dy="4" in="SourceAlpha" result="shadowOffsetOuter1"/><feGaussianBlur stdDeviation="5.5" in="shadowOffsetOuter1" result="shadowBlurOuter1"/><feColorMatrix values="0 0 0 0 0.790142532 0 0 0 0 0.893348712 0 0 0 0 0.927508503 0 0 0 1 0" in="shadowBlurOuter1"/></filter><path d="M226.487 88.974a2.486 2.486 0 1 1-.001-4.973 2.486 2.486 0 0 1 .001 4.973z" id="p"/><filter x="-371.9%" y="-291.5%" width="843.9%" height="843.9%" filterUnits="objectBoundingBox" id="o"><feOffset dy="4" in="SourceAlpha" result="shadowOffsetOuter1"/><feGaussianBlur stdDeviation="5.5" in="shadowOffsetOuter1" result="shadowBlurOuter1"/><feColorMatrix values="0 0 0 0 0.790142532 0 0 0 0 0.893348712 0 0 0 0 0.927508503 0 0 0 1 0" in="shadowBlurOuter1"/></filter><path d="M250.487 50.974a2.486 2.486 0 1 1-.001-4.973 2.486 2.486 0 0 1 .001 4.973z" id="r"/><filter x="-371.9%" y="-291.5%" width="843.9%" height="843.9%" filterUnits="objectBoundingBox" id="q"><feOffset dy="4" in="SourceAlpha" result="shadowOffsetOuter1"/><feGaussianBlur stdDeviation="5.5" in="shadowOffsetOuter1" result="shadowBlurOuter1"/><feColorMatrix values="0 0 0 0 0.790142532 0 0 0 0 0.893348712 0 0 0 0 0.927508503 0 0 0 1 0" in="shadowBlurOuter1"/></filter><path d="M181.5 10a1.5 1.5 0 1 1 0-3 1.5 1.5 0 0 1 0 3z" id="t"/><filter x="-616.7%" y="-483.3%" width="1333.3%" height="1333.3%" filterUnits="objectBoundingBox" id="s"><feOffset dy="4" in="SourceAlpha" result="shadowOffsetOuter1"/><feGaussianBlur stdDeviation="5.5" in="shadowOffsetOuter1" result="shadowBlurOuter1"/><feColorMatrix values="0 0 0 0 0.790142532 0 0 0 0 0.893348712 0 0 0 0 0.927508503 0 0 0 1 0" in="shadowBlurOuter1"/></filter><path d="M29.5 22a1.5 1.5 0 1 1 0-3 1.5 1.5 0 0 1 0 3z" id="v"/><filter x="-616.7%" y="-483.3%" width="1333.3%" height="1333.3%" filterUnits="objectBoundingBox" id="u"><feOffset dy="4" in="SourceAlpha" result="shadowOffsetOuter1"/><feGaussianBlur stdDeviation="5.5" in="shadowOffsetOuter1" result="shadowBlurOuter1"/><feColorMatrix values="0 0 0 0 0.790142532 0 0 0 0 0.893348712 0 0 0 0 0.927508503 0 0 0 1 0" in="shadowBlurOuter1"/></filter><path d="M246.324 76.162a2.162 2.162 0 1 1-4.324 0 2.162 2.162 0 0 1 4.324 0" id="x"/><filter x="-427.8%" y="-335.3%" width="955.7%" height="955.7%" filterUnits="objectBoundingBox" id="w"><feOffset dy="4" in="SourceAlpha" result="shadowOffsetOuter1"/><feGaussianBlur stdDeviation="5.5" in="shadowOffsetOuter1" result="shadowBlurOuter1"/><feColorMatrix values="0 0 0 0 0.790142532 0 0 0 0 0.893348712 0 0 0 0 0.927508503 0 0 0 1 0" in="shadowBlurOuter1"/></filter><path d="M163.324 3.162a2.162 2.162 0 1 1-4.324 0 2.162 2.162 0 0 1 4.324 0" id="z"/><filter x="-427.8%" y="-335.3%" width="955.7%" height="955.7%" filterUnits="objectBoundingBox" id="y"><feOffset dy="4" in="SourceAlpha" result="shadowOffsetOuter1"/><feGaussianBlur stdDeviation="5.5" in="shadowOffsetOuter1" result="shadowBlurOuter1"/><feColorMatrix values="0 0 0 0 0.790142532 0 0 0 0 0.893348712 0 0 0 0 0.927508503 0 0 0 1 0" in="shadowBlurOuter1"/></filter><path d="M20.324 72.162a2.162 2.162 0 1 1-4.324 0 2.162 2.162 0 0 1 4.324 0" id="B"/><filter x="-427.8%" y="-335.3%" width="955.7%" height="955.7%" filterUnits="objectBoundingBox" id="A"><feOffset dy="4" in="SourceAlpha" result="shadowOffsetOuter1"/><feGaussianBlur stdDeviation="5.5" in="shadowOffsetOuter1" result="shadowBlurOuter1"/><feColorMatrix values="0 0 0 0 0.790142532 0 0 0 0 0.893348712 0 0 0 0 0.927508503 0 0 0 1 0" in="shadowBlurOuter1"/></filter><path d="M73.324 28.162a2.162 2.162 0 1 1-4.324 0 2.162 2.162 0 0 1 4.324 0" id="D"/><filter x="-427.8%" y="-335.3%" width="955.7%" height="955.7%" filterUnits="objectBoundingBox" id="C"><feOffset dy="4" in="SourceAlpha" result="shadowOffsetOuter1"/><feGaussianBlur stdDeviation="5.5" in="shadowOffsetOuter1" result="shadowBlurOuter1"/><feColorMatrix values="0 0 0 0 0.790142532 0 0 0 0 0.893348712 0 0 0 0 0.927508503 0 0 0 1 0" in="shadowBlurOuter1"/></filter><path d="M261.324 4.162a2.162 2.162 0 1 1-4.324 0 2.162 2.162 0 0 1 4.324 0" id="F"/><filter x="-427.8%" y="-335.3%" width="955.7%" height="955.7%" filterUnits="objectBoundingBox" id="E"><feOffset dy="4" in="SourceAlpha" result="shadowOffsetOuter1"/><feGaussianBlur stdDeviation="5.5" in="shadowOffsetOuter1" result="shadowBlurOuter1"/><feColorMatrix values="0 0 0 0 0.790142532 0 0 0 0 0.893348712 0 0 0 0 0.927508503 0 0 0 1 0" in="shadowBlurOuter1"/></filter><path d="M36 123.5a1.5 1.5 0 1 1-3 0 1.5 1.5 0 0 1 3 0" id="H"/><filter x="-616.7%" y="-483.3%" width="1333.3%" height="1333.3%" filterUnits="objectBoundingBox" id="G"><feOffset dy="4" in="SourceAlpha" result="shadowOffsetOuter1"/><feGaussianBlur stdDeviation="5.5" in="shadowOffsetOuter1" result="shadowBlurOuter1"/><feColorMatrix values="0 0 0 0 0.790142532 0 0 0 0 0.893348712 0 0 0 0 0.927508503 0 0 0 1 0" in="shadowBlurOuter1"/></filter><path d="M25 96.5a1.5 1.5 0 1 1-3 .001 1.5 1.5 0 0 1 3 0" id="J"/><filter x="-616.7%" y="-483.2%" width="1333.3%" height="1332.9%" filterUnits="objectBoundingBox" id="I"><feOffset dy="4" in="SourceAlpha" result="shadowOffsetOuter1"/><feGaussianBlur stdDeviation="5.5" in="shadowOffsetOuter1" result="shadowBlurOuter1"/><feColorMatrix values="0 0 0 0 0.790142532 0 0 0 0 0.893348712 0 0 0 0 0.927508503 0 0 0 1 0" in="shadowBlurOuter1"/></filter><path d="M39.532 53.767a2.766 2.766 0 1 1-5.533.001 2.766 2.766 0 0 1 5.533-.001" id="L"/><filter x="-334.4%" y="-262%" width="768.8%" height="768.6%" filterUnits="objectBoundingBox" id="K"><feOffset dy="4" in="SourceAlpha" result="shadowOffsetOuter1"/><feGaussianBlur stdDeviation="5.5" in="shadowOffsetOuter1" result="shadowBlurOuter1"/><feColorMatrix values="0 0 0 0 0.790142532 0 0 0 0 0.893348712 0 0 0 0 0.927508503 0 0 0 1 0" in="shadowBlurOuter1"/></filter><path d="M240 27a1 1 0 1 1-2 0 1 1 0 0 1 2 0" id="N"/><filter x="-925%" y="-724.7%" width="1950%" height="1949.3%" filterUnits="objectBoundingBox" id="M"><feOffset dy="4" in="SourceAlpha" result="shadowOffsetOuter1"/><feGaussianBlur stdDeviation="5.5" in="shadowOffsetOuter1" result="shadowBlurOuter1"/><feColorMatrix values="0 0 0 0 0.790142532 0 0 0 0 0.893348712 0 0 0 0 0.927508503 0 0 0 1 0" in="shadowBlurOuter1"/></filter><path d="M133 9a1 1 0 1 1-2 0 1 1 0 0 1 2 0" id="P"/><filter x="-925%" y="-724.7%" width="1950%" height="1949.3%" filterUnits="objectBoundingBox" id="O"><feOffset dy="4" in="SourceAlpha" result="shadowOffsetOuter1"/><feGaussianBlur stdDeviation="5.5" in="shadowOffsetOuter1" result="shadowBlurOuter1"/><feColorMatrix values="0 0 0 0 0.790142532 0 0 0 0 0.893348712 0 0 0 0 0.927508503 0 0 0 1 0" in="shadowBlurOuter1"/></filter><path d="M230.458 54.729a3.729 3.729 0 1 1-7.458 0 3.729 3.729 0 0 1 7.458 0" id="R"/><filter x="-248.1%" y="-194.4%" width="596.1%" height="596.1%" filterUnits="objectBoundingBox" id="Q"><feOffset dy="4" in="SourceAlpha" result="shadowOffsetOuter1"/><feGaussianBlur stdDeviation="5.5" in="shadowOffsetOuter1" result="shadowBlurOuter1"/><feColorMatrix values="0 0 0 0 0.790142532 0 0 0 0 0.893348712 0 0 0 0 0.927508503 0 0 0 1 0" in="shadowBlurOuter1"/></filter><path d="M5.229 2.729a2.5 2.5 0 1 1-5 0 2.5 2.5 0 0 1 5 0" id="T"/><filter x="-370%" y="-290%" width="840%" height="840%" filterUnits="objectBoundingBox" id="S"><feOffset dy="4" in="SourceAlpha" result="shadowOffsetOuter1"/><feGaussianBlur stdDeviation="5.5" in="shadowOffsetOuter1" result="shadowBlurOuter1"/><feColorMatrix values="0 0 0 0 0.790142532 0 0 0 0 0.893348712 0 0 0 0 0.927508503 0 0 0 1 0" in="shadowBlurOuter1"/></filter><filter x="-43%" y="-29.6%" width="186%" height="175.5%" filterUnits="objectBoundingBox" id="U"><feOffset dy="4" in="SourceAlpha" result="shadowOffsetOuter1"/><feGaussianBlur stdDeviation="5.5" in="shadowOffsetOuter1" result="shadowBlurOuter1"/><feColorMatrix values="0 0 0 0 0.790142532 0 0 0 0 0.893348712 0 0 0 0 0.927508503 0 0 0 1 0" in="shadowBlurOuter1" result="shadowMatrixOuter1"/><feMerge><feMergeNode in="shadowMatrixOuter1"/><feMergeNode in="SourceGraphic"/></feMerge></filter><linearGradient x1="0%" y1="65.008%" y2="33.602%" id="V"><stop stop-color="#A60B43" offset="0%"/><stop stop-color="#F42671" offset="100%"/></linearGradient><path id="W" d="M21.204 24.545l-.067 23.971L.275 36.471.342 12.5z"/><linearGradient x1="0%" y1="100%" y2="0%" id="X"><stop stop-color="#A60B43" offset="0%"/><stop stop-color="#F42671" offset="100%"/></linearGradient><linearGradient x1="0%" y1="50%" y2="50%" id="Y"><stop stop-color="#A60B43" offset="0%"/><stop stop-color="#F42671" offset="100%"/></linearGradient><path id="Z" d="M.343 12.5L21.2.378l20.861 12.046-20.857 12.12z"/><rect id="aa" x=".408" y=".518" width="63" height="23" rx="4"/></defs><g fill="none" fill-rule="evenodd"><path d="M9 5h265v150H9z"/><g transform="translate(10 6)"><use fill="#000" filter="url(#a)" xlink:href="#b"/><use fill="#FF9D3F" xlink:href="#b"/></g><g transform="translate(10 6)"><use fill="#000" filter="url(#c)" xlink:href="#d"/><use fill="#FF9D3F" xlink:href="#d"/></g><g transform="translate(10 6)"><use fill="#000" filter="url(#e)" xlink:href="#f"/><use fill="#FF9D3F" xlink:href="#f"/></g><g transform="translate(10 6)"><use fill="#000" filter="url(#g)" xlink:href="#h"/><use fill="#FF9D3F" xlink:href="#h"/></g><g transform="translate(10 6)"><use fill="#000" filter="url(#i)" xlink:href="#j"/><use fill="#FF9D3F" xlink:href="#j"/></g><g transform="translate(10 6)"><use fill="#000" filter="url(#k)" xlink:href="#l"/><use fill="#FF9D3F" xlink:href="#l"/></g><g transform="translate(10 6)"><use fill="#000" filter="url(#m)" xlink:href="#n"/><use fill="#FF9D3F" xlink:href="#n"/></g><g transform="translate(10 6)"><use fill="#000" filter="url(#o)" xlink:href="#p"/><use fill="#E7E7E7" xlink:href="#p"/></g><g transform="translate(10 6)"><use fill="#000" filter="url(#q)" xlink:href="#r"/><use fill="#E7E7E7" xlink:href="#r"/></g><g transform="translate(10 6)"><use fill="#000" filter="url(#s)" xlink:href="#t"/><use fill="#E7E7E7" xlink:href="#t"/></g><g transform="translate(10 6)"><use fill="#000" filter="url(#u)" xlink:href="#v"/><use fill="#E7E7E7" xlink:href="#v"/></g><g transform="translate(10 6)"><use fill="#000" filter="url(#w)" xlink:href="#x"/><use fill="#1CAAD9" xlink:href="#x"/></g><g transform="translate(10 6)"><use fill="#000" filter="url(#y)" xlink:href="#z"/><use fill="#1CAAD9" xlink:href="#z"/></g><g transform="translate(10 6)"><use fill="#000" filter="url(#A)" xlink:href="#B"/><use fill="#1CAAD9" xlink:href="#B"/></g><g transform="translate(10 6)"><use fill="#000" filter="url(#C)" xlink:href="#D"/><use fill="#1CAAD9" xlink:href="#D"/></g><g transform="translate(10 6)"><use fill="#000" filter="url(#E)" xlink:href="#F"/><use fill="#1CAAD9" xlink:href="#F"/></g><g transform="translate(10 6)"><use fill="#000" filter="url(#G)" xlink:href="#H"/><use fill="#1CAAD9" xlink:href="#H"/></g><g transform="translate(10 6)"><use fill="#000" filter="url(#I)" xlink:href="#J"/><use fill="#E7E7E7" xlink:href="#J"/></g><g transform="translate(10 6)"><use fill="#000" filter="url(#K)" xlink:href="#L"/><use fill="#E7E7E7" xlink:href="#L"/></g><g transform="translate(10 6)"><use fill="#000" filter="url(#M)" xlink:href="#N"/><use fill="#E7E7E7" xlink:href="#N"/></g><g transform="translate(10 6)"><use fill="#000" filter="url(#O)" xlink:href="#P"/><use fill="#E7E7E7" xlink:href="#P"/></g><g transform="translate(10 6)"><use fill="#000" filter="url(#Q)" xlink:href="#R"/><use fill="#FF9D3F" xlink:href="#R"/></g><g transform="translate(10 6)"><use fill="#000" filter="url(#S)" xlink:href="#T"/><use fill="#1CAAD9" xlink:href="#T"/></g><g><path d="M242.927 145.451c0 5.232-4.28 9.513-9.513 9.513H49.512c-5.231 0-9.512-4.28-9.512-9.513" fill="#E0EAF0"/><path d="M65.366 28.135H217.56c3.488 0 6.342 2.854 6.342 6.34v110.976H59.025V34.476c0-3.487 2.854-6.341 6.34-6.341" fill="#BCCED8"/><path fill="#FEFEFE" d="M64 140.316h155.082V33H64z"/><g filter="url(#U)" transform="translate(120.065 45.488)"><use fill="url(#V)" xlink:href="#W"/><use fill-opacity=".28" fill="#000" style="mix-blend-mode:luminosity" xlink:href="#W"/><path fill="url(#X)" d="M21.204 24.545l20.858-12.122-.069 23.972-20.856 12.121z"/><g><use fill="url(#Y)" xlink:href="#Z"/><use fill-opacity=".09" fill="#000" style="mix-blend-mode:luminosity" xlink:href="#Z"/></g></g><g transform="translate(110 105)"><mask id="ab" fill="#fff"><use xlink:href="#aa"/></mask><use fill="#DF1660" xlink:href="#aa"/><path d="M19.107 13.97c0 .79-.284 1.412-.852 1.866-.568.455-1.358.682-2.371.682-.933 0-1.758-.176-2.476-.526v-1.723c.59.263 1.09.449 1.498.556.409.108.783.162 1.122.162.406 0 .718-.078.935-.233.218-.156.326-.387.326-.694a.766.766 0 0 0-.143-.457 1.606 1.606 0 0 0-.422-.386c-.185-.124-.563-.321-1.133-.592-.534-.251-.935-.493-1.202-.724-.267-.231-.48-.5-.64-.807a2.304 2.304 0 0 1-.24-1.077c0-.773.263-1.381.787-1.824.525-.442 1.25-.663 2.174-.663.455 0 .888.053 1.3.161.413.108.845.26 1.296.455l-.599 1.44a8.75 8.75 0 0 0-1.157-.4 3.725 3.725 0 0 0-.9-.114c-.35 0-.62.082-.807.246a.809.809 0 0 0-.281.64c0 .163.038.306.113.427.076.122.197.24.362.353.166.114.557.318 1.175.613.818.39 1.378.782 1.68 1.175.304.393.455.874.455 1.444zm4.958 2.428h-1.854v-7.2h-2.374V7.655h6.602v1.543h-2.374v7.2zm11.41-4.383c0 1.447-.358 2.56-1.076 3.337-.718.777-1.746 1.166-3.086 1.166-1.34 0-2.368-.389-3.086-1.166-.717-.778-1.076-1.894-1.076-3.35 0-1.454.36-2.566 1.08-3.333.719-.768 1.75-1.151 3.094-1.151 1.344 0 2.371.386 3.083 1.16.712.773 1.067 1.886 1.067 3.337zm-6.38 0c0 .977.185 1.712.556 2.206.37.495.925.742 1.662.742 1.48 0 2.219-.983 2.219-2.948 0-1.97-.736-2.955-2.207-2.955-.737 0-1.294.249-1.668.745-.375.496-.563 1.233-.563 2.21zm10.046-.479h.598c.586 0 1.019-.097 1.298-.293.28-.195.419-.502.419-.92 0-.415-.143-.71-.428-.886-.285-.175-.726-.263-1.325-.263h-.562v2.362zm0 1.507v3.355h-1.854V7.655h2.548c1.188 0 2.067.216 2.637.649.57.433.856 1.09.856 1.97 0 .515-.142.972-.425 1.373-.283.4-.684.715-1.202.942a353.104 353.104 0 0 0 2.571 3.81h-2.057l-2.087-3.356h-.987zm11.267 3.355h-5.035V7.655h5.035v1.52h-3.181v1.919h2.96v1.519h-2.96v2.254h3.181v1.531z" fill="#FFF" mask="url(#ab)"/></g></g></g></svg>