<svg height="38" width="49" xmlns="http://www.w3.org/2000/svg"><g fill="none" fill-rule="evenodd"><path d="m24.625 30h-7.186l-.286 2h7.717zm4.975 2c1.334 0 1.334 2 0 2h-16.6c-1.333 0-1.333-2 0-2h2.133l.45-3.142a1 1 0 0 1 .99-.858h8.937a1 1 0 0 1 .992.878l.383 3.122zm-16.6-2h16.6v-2h-16.6zm0-2h16.6c1.334 0 1.334 2 0 2h-16.6c-1.333 0-1.333-2 0-2z" fill="#1c88bb" fill-rule="nonzero"/><path d="m30.826 28a1 1 0 0 1 0 2h-26.826a4 4 0 0 1 -4-4v-22a4 4 0 0 1 4-4h35a4 4 0 0 1 4 4v5.911a1 1 0 0 1 -2 0v-5.911a2 2 0 0 0 -2-2h-35a2 2 0 0 0 -2 2v22a2 2 0 0 0 2 2z" fill="#1c88bb" fill-rule="nonzero"/><path d="m20.63 16.416v7.428l-6.63-4.062v-7.427l6.63 4.06zm.87-1.508-7.271-4.454 7.271-4.454 7.271 4.454zm.87 1.508 6.63-4.061v7.427l-6.63 4.062z" fill="#1caad9"/><path d="m46 13c1.662 0 3 1.398 3 3.09v18.82c0 1.692-1.338 3.09-3 3.09h-9c-1.662 0-3-1.398-3-3.09v-18.82c0-1.692 1.338-3.09 3-3.09zm0 2h-9c-.538 0-1 .483-1 1.09v18.82c0 .607.462 1.09 1 1.09h9c.538 0 1-.483 1-1.09v-18.82c0-.607-.462-1.09-1-1.09z" fill="#1c88bb" fill-rule="nonzero"/><path d="m41.094 24.86v3.467l-3.094-1.895v-3.467l3.094 1.896zm.406-.703-3.393-2.078 3.393-2.079 3.393 2.079zm.406.704 3.094-1.896v3.467l-3.094 1.895z" fill="#1caad9"/><path d="m39.136 35a1 1 0 0 1 0-2h5a1 1 0 1 1 0 2z" fill="#1c88bb" fill-rule="nonzero"/></g></svg>