<svg height="47" width="49" xmlns="http://www.w3.org/2000/svg"><g fill="none" fill-rule="evenodd"><path d="m-1-1h51v51h-51z"/><path d="m47 16.7h1.34l-6.377 21.49v5.96a2.839 2.839 0 0 1 -2.829 2.85h-29.268a2.839 2.839 0 0 1 -2.83-2.85v-5.959l-6.376-21.491h1.34c1.85 0 3.571.848 4.71 2.257a3.71 3.71 0 0 1 1.692-.407c2.07 0 3.744 1.692 3.744 3.774 0 1.543-.913 2.85-2.199 3.44l.11.133c.942 1.148 2.652 1.901 4.279 1.901 1.454 0 3.026-.603 3.955-1.542l.373-.377a3.775 3.775 0 0 1 -2.481-3.555c0-2.079 1.669-3.77 3.735-3.774a4.763 4.763 0 0 1 -.077-.85c0-2.968 2.69-5.21 5.64-4.597 1.732.36 3.153 1.756 3.55 3.489.152.661.166 1.325.052 1.958 2.066.005 3.734 1.695 3.734 3.774a3.775 3.775 0 0 1 -2.48 3.555l.372.377c.928.938 2.498 1.542 3.955 1.542 1.621 0 3.332-.748 4.28-1.901l.109-.133a3.778 3.778 0 0 1 -2.2-3.44c0-2.082 1.674-3.774 3.745-3.774.599 0 1.177.143 1.693.407a6.055 6.055 0 0 1 4.709-2.258zm-3.574 4.145-.646 1.195-.95-.97a1.716 1.716 0 0 0 -1.232-.521c-.961 0-1.744.792-1.744 1.774 0 1.065.915 1.884 1.938 1.764l2.465-.289-1.576 1.917-1.192 1.45c-1.342 1.633-3.625 2.632-5.825 2.632-1.972 0-4.058-.802-5.377-2.136l-3.524-3.563h3.31c.96 0 1.744-.792 1.744-1.775 0-.982-.783-1.774-1.744-1.774h-3.128l.856-1.497c.34-.593.446-1.295.281-2.014-.223-.972-1.043-1.777-2.008-1.978a2.674 2.674 0 0 0 -3.233 2.64c0 .483.125.945.358 1.352l.856 1.497h-3.128c-.96 0-1.744.792-1.744 1.774 0 .983.783 1.775 1.744 1.775h3.31l-3.524 3.563c-1.32 1.336-3.408 2.136-5.377 2.136-2.207 0-4.49-1.005-5.825-2.631l-2.768-3.368 2.465.29c1.024.12 1.938-.7 1.938-1.765 0-.982-.783-1.774-1.744-1.774-.47 0-.908.188-1.233.52l-.95.971-.645-1.195a4.091 4.091 0 0 0 -2.158-1.889l5.62 18.945v6.25c0 .471.374.849.83.849h29.268a.84.84 0 0 0 .83-.85v-6.25l5.62-18.944a4.091 4.091 0 0 0 -2.158 1.89z" fill="#1c88bb" fill-rule="nonzero"/><path d="m23.862 37.638v5.447l-4.862-2.978v-5.447zm.638-1.105-5.332-3.266 5.332-3.267 5.332 3.267zm.638 1.105 4.862-2.978v5.447l-4.862 2.978z" fill="#1caad9"/><g fill-rule="nonzero"><path d="m24 .93v6.14c0 .513.448.93 1 .93s1-.417 1-.93v-6.14c0-.513-.448-.93-1-.93s-1 .417-1 .93zm-18.732 7.338a.915.915 0 0 0 0 1.294l5.17 5.17a.915.915 0 0 0 1.294-1.294l-5.17-5.17a.915.915 0 0 0 -1.294 0zm37.172 0-5.172 5.171a.914.914 0 0 0 1.293 1.293l5.171-5.171a.914.914 0 0 0 -1.293-1.293z" fill="#1caad9"/><path d="m8 38.5a1 1 0 0 1 0-2h7.517a1 1 0 0 1 0 2zm32-2a1 1 0 0 1 0 2h-7.517a1 1 0 0 1 0-2z" fill="#1c88bb"/></g></g></svg>