<svg width="35" height="30" xmlns="http://www.w3.org/2000/svg"><g fill="none" fill-rule="evenodd"><path d="M-8-10h51v51H-8z"/><path d="M11.173 21.527c.266.364.4.74.4 1.128 0 .387-.134.709-.4.963-.266.255-.604.382-1.016.382-.266 0-.568-.073-.907-.218-.604-.437-1.281-.934-2.031-1.491a550.542 550.542 0 0 1-4.57-3.436 59.83 59.83 0 0 0-2.069-1.51c-.387-.387-.58-.787-.58-1.2 0-.484.23-.909.69-1.272l.815-.655c.424-.34.938-.74 1.542-1.2.605-.46 1.24-.957 1.905-1.49.665-.534 1.3-1.031 1.904-1.492.605-.46 1.125-.866 1.56-1.218.435-.351.701-.563.798-.636.315-.121.58-.182.798-.182.411 0 .75.133 1.016.4s.4.594.4.982c0 .412-.158.812-.473 1.2-.41.34-.93.751-1.56 1.236-.628.485-1.281.994-1.958 1.527a241.94 241.94 0 0 1-1.96 1.528c-.628.485-1.148.897-1.56 1.236.485.364 1.047.782 1.688 1.255.64.472 1.288.957 1.94 1.454.653.497 1.3.982 1.941 1.455.641.472 1.203.89 1.687 1.254zm12.654 0c.484-.363 1.046-.782 1.687-1.254.64-.473 1.288-.958 1.94-1.455.653-.497 1.3-.982 1.941-1.454.641-.473 1.203-.891 1.687-1.255-.411-.34-.93-.751-1.56-1.236a241.94 241.94 0 0 1-1.959-1.528 241.94 241.94 0 0 0-1.959-1.527 61.672 61.672 0 0 1-1.56-1.236c-.314-.388-.471-.788-.471-1.2 0-.388.133-.715.399-.982s.605-.4 1.016-.4c.217 0 .483.06.798.182.12.073.393.285.816.636.423.352.937.758 1.542 1.218.604.461 1.24.958 1.904 1.491.665.534 1.3 1.03 1.905 1.491.604.46 1.118.86 1.542 1.2l.816.655c.46.363.689.788.689 1.272 0 .413-.193.813-.58 1.2-.605.437-1.288.94-2.05 1.51-.762.57-1.53 1.145-2.304 1.727-.773.582-1.535 1.151-2.285 1.709-.75.557-1.427 1.054-2.031 1.49a2.157 2.157 0 0 1-.907.219c-.412 0-.75-.127-1.016-.382a1.277 1.277 0 0 1-.4-.963c0-.388.134-.764.4-1.128z" fill="#1C88BB"/><path d="M19.978 1.172c.318-.689.77-1.074 1.356-1.156A1.54 1.54 0 0 1 22.42.27c.343.225.546.556.607.993.03.219.005.495-.078.828-1.312 4.52-2.634 9.017-3.965 13.49a7616.983 7616.983 0 0 0-4.004 13.495 1.751 1.751 0 0 1-.608.661c-.24.145-.473.234-.703.266a1.404 1.404 0 0 1-1.049-.261c-.317-.228-.51-.585-.579-1.07l-.033-.238a1.092 1.092 0 0 1 0-.278 2061.61 2061.61 0 0 1 3.965-13.49c1.332-4.473 2.666-8.971 4.004-13.495z" fill="#1CAAD9"/></g></svg>